<svg xmlns="http://www.w3.org/2000/svg" width="501.413" height="578.339" viewBox="0 0 501.413 578.339">
  <path id="blob" d="M256.316-4.271c22.644,51.131,2.922,120.523-2.557,174.576-5.478,54.418,3.652,93.5-4.383,136.958-8.4,43.461-33.6,91.305-70.853,102.992C141.636,421.943,93.062,397.473,50.7,374.1c-42-23.374-78.157-45.653-87.288-76.331s8.035-69.757,13.513-112.488c5.478-43.1-1.1-89.844,18.261-141.341C14.174-7.923,59.1-64.532,113.879-76.585,169.028-88.272,233.672-55.4,256.316-4.271Z" transform="matrix(-0.883, 0.469, -0.469, -0.883, 429.721, 383.308)" fill="#6d78fe"/>
</svg>
