<svg width="203" height="60" viewBox="0 0 203 60" fill="none" xmlns="http://www.w3.org/2000/svg">
<path d="M74.9536 18.7973H68.1024C67.8781 19.5518 67.6334 20.3368 67.3683 21.1524C67.1236 21.9681 66.9197 22.6409 66.7566 23.1711C66.5527 23.2527 66.3284 23.324 66.0837 23.3852C65.8594 23.4464 65.574 23.4769 65.2273 23.4769C64.534 23.4769 63.9937 23.3444 63.6063 23.0793C63.2189 22.7939 63.0251 22.3963 63.0251 21.8865C63.0251 21.6418 63.0557 21.4073 63.1169 21.183C63.1985 20.9383 63.2902 20.6631 63.3922 20.3572C63.5553 19.7863 63.7694 19.1032 64.0345 18.308C64.3199 17.4923 64.6156 16.6155 64.9215 15.6776C65.2477 14.7192 65.5944 13.7405 65.9614 12.7413C66.3284 11.7218 66.675 10.7431 67.0013 9.80511C67.3479 8.84676 67.6742 7.95977 67.98 7.14415C68.3063 6.30814 68.5816 5.59447 68.8059 5.00314C69.0709 4.86041 69.4584 4.71768 69.9681 4.57494C70.4983 4.43221 71.0284 4.36084 71.5586 4.36084C72.2722 4.36084 72.9247 4.47299 73.5161 4.69729C74.1074 4.90119 74.4846 5.23763 74.6477 5.70662C75.0555 6.82809 75.5041 8.12289 75.9935 9.59101C76.4829 11.0387 76.9723 12.5374 77.4616 14.0871C77.9714 15.6368 78.4608 17.1559 78.9297 18.6444C79.3987 20.1329 79.8167 21.4685 80.1838 22.6511C79.9799 22.8754 79.6944 23.0589 79.3274 23.2017C78.9807 23.3648 78.5627 23.4464 78.0733 23.4464C77.3597 23.4464 76.8499 23.324 76.5441 23.0793C76.2586 22.8143 76.0343 22.4064 75.8712 21.8559L74.9536 18.7973ZM71.528 7.84762C71.3445 8.35738 71.1406 8.92832 70.9163 9.56042C70.7124 10.1925 70.4881 10.8552 70.2434 11.5485C70.0191 12.2214 69.7846 12.9147 69.5399 13.6283C69.2952 14.3216 69.0607 15.0047 68.8364 15.6776H74.1584L71.6809 7.84762H71.528Z" fill="white"/>
<path d="M92.0042 21.9171C91.5964 22.121 91.1172 22.2943 90.5667 22.437C90.0365 22.5798 89.4146 22.6511 88.7009 22.6511C87.7834 22.6511 86.9168 22.5288 86.1012 22.2841C85.2855 22.019 84.5719 21.601 83.9601 21.0301C83.3484 20.4592 82.8591 19.7251 82.492 18.8279C82.1454 17.9103 81.9721 16.7991 81.9721 15.4941C81.9721 14.3114 82.1454 13.2715 82.492 12.3743C82.8591 11.4567 83.3688 10.6921 84.0213 10.0804C84.6942 9.46867 85.4894 9.00988 86.407 8.70402C87.3246 8.39816 88.3441 8.24524 89.4656 8.24524C90.5259 8.24524 91.4944 8.37777 92.3712 8.64285C93.2684 8.90793 93.9821 9.21378 94.5122 9.56042C94.8793 9.80511 95.1647 10.0804 95.3686 10.3862C95.5929 10.6921 95.7051 11.0795 95.7051 11.5485V23.3546C95.7051 24.3945 95.5114 25.2917 95.124 26.0462C94.7569 26.8006 94.2472 27.4123 93.5947 27.8813C92.9422 28.3707 92.1775 28.7275 91.3007 28.9518C90.4239 29.1761 89.4758 29.2882 88.4563 29.2882C87.3959 29.2882 86.4682 29.1863 85.673 28.9824C84.8981 28.7989 84.317 28.5848 83.9296 28.3401C83.2567 27.9119 82.9202 27.341 82.9202 26.6273C82.9202 26.2399 83.0018 25.9034 83.1649 25.618C83.328 25.3325 83.5218 25.1184 83.746 24.9757C84.2762 25.3019 84.9185 25.5874 85.673 25.8321C86.4274 26.0767 87.2328 26.1991 88.0892 26.1991C89.3127 26.1991 90.271 25.9646 90.9643 25.4956C91.6576 25.0266 92.0042 24.2722 92.0042 23.2323V21.9171ZM89.3432 19.6537C89.9346 19.6537 90.4341 19.5722 90.8419 19.409C91.2701 19.2459 91.6372 19.0522 91.943 18.8279V11.9155C91.6576 11.7524 91.3211 11.6097 90.9337 11.4873C90.5667 11.365 90.1181 11.3038 89.5879 11.3038C88.4665 11.3038 87.5591 11.6505 86.8658 12.3437C86.1929 13.0166 85.8565 14.0667 85.8565 15.4941C85.8565 16.2689 85.938 16.9214 86.1012 17.4516C86.2847 17.9817 86.5294 18.4099 86.8352 18.7362C87.1615 19.0624 87.5387 19.2969 87.9669 19.4396C88.3951 19.5824 88.8539 19.6537 89.3432 19.6537Z" fill="white"/>
<path d="M102.672 17.6657C102.957 18.7056 103.488 19.46 104.262 19.929C105.037 20.398 105.996 20.6325 107.137 20.6325C107.994 20.6325 108.779 20.5101 109.493 20.2654C110.227 20.0004 110.818 19.7251 111.267 19.4396C111.552 19.6028 111.787 19.827 111.97 20.1125C112.154 20.398 112.245 20.7038 112.245 21.0301C112.245 21.4379 112.103 21.8049 111.817 22.1312C111.552 22.437 111.175 22.7021 110.685 22.9264C110.216 23.1507 109.656 23.324 109.003 23.4464C108.351 23.5687 107.647 23.6299 106.893 23.6299C105.69 23.6299 104.589 23.4668 103.59 23.1405C102.611 22.8143 101.765 22.3249 101.051 21.6724C100.358 20.9995 99.8071 20.1737 99.3993 19.1949C99.0119 18.2162 98.8181 17.0743 98.8181 15.7693C98.8181 14.5051 99.0119 13.404 99.3993 12.4661C99.7867 11.5281 100.307 10.7431 100.959 10.111C101.632 9.47886 102.407 9.00988 103.284 8.70402C104.16 8.39816 105.088 8.24524 106.067 8.24524C107.066 8.24524 107.984 8.40836 108.82 8.73461C109.656 9.04047 110.369 9.47886 110.961 10.0498C111.552 10.6003 112.011 11.2732 112.337 12.0685C112.684 12.8433 112.857 13.6895 112.857 14.6071C112.857 15.178 112.704 15.6062 112.398 15.8917C112.113 16.1771 111.705 16.3607 111.175 16.4422L102.672 17.6657ZM106.067 11.1509C105.068 11.1509 104.232 11.4873 103.559 12.1602C102.886 12.8127 102.509 13.7507 102.427 14.9741L109.217 13.9648C109.136 13.2103 108.84 12.5578 108.33 12.0073C107.821 11.4364 107.066 11.1509 106.067 11.1509Z" fill="white"/>
<path d="M125.464 13.8424C125.464 12.9656 125.209 12.3233 124.699 11.9155C124.21 11.5077 123.537 11.3038 122.681 11.3038C122.089 11.3038 121.539 11.3752 121.029 11.5179C120.54 11.6606 120.111 11.8442 119.744 12.0685V23.1405C119.561 23.1813 119.316 23.2323 119.01 23.2934C118.704 23.3546 118.358 23.3852 117.97 23.3852C117.257 23.3852 116.727 23.2527 116.38 22.9876C116.033 22.7225 115.86 22.2535 115.86 21.5806V11.7626C115.86 11.2732 115.962 10.8756 116.166 10.5698C116.37 10.2639 116.686 9.96823 117.114 9.68277C117.705 9.27496 118.49 8.93851 119.469 8.67344C120.448 8.38797 121.528 8.24524 122.711 8.24524C124.811 8.24524 126.432 8.71422 127.574 9.65218C128.737 10.5698 129.318 11.9257 129.318 13.7201V23.1405C129.155 23.1813 128.91 23.2323 128.584 23.2934C128.278 23.3546 127.941 23.3852 127.574 23.3852C126.84 23.3852 126.3 23.2527 125.953 22.9876C125.627 22.7225 125.464 22.2535 125.464 21.5806V13.8424Z" fill="white"/>
<path d="M146.641 20.3572C146.641 20.8262 146.539 21.2034 146.335 21.4889C146.131 21.7743 145.825 22.0496 145.417 22.3147C144.908 22.6409 144.235 22.9366 143.399 23.2017C142.563 23.4871 141.594 23.6299 140.493 23.6299C138.046 23.6299 136.099 23.008 134.651 21.7641C133.224 20.4999 132.51 18.573 132.51 15.9834C132.51 14.6377 132.704 13.4856 133.091 12.5272C133.479 11.5485 133.999 10.7431 134.651 10.111C135.324 9.47886 136.109 9.00988 137.006 8.70402C137.904 8.39816 138.872 8.24524 139.912 8.24524C140.463 8.24524 140.983 8.30641 141.472 8.42875C141.961 8.5307 142.4 8.66324 142.787 8.82637V3.29034C142.95 3.22917 143.185 3.17819 143.491 3.13741C143.817 3.07624 144.163 3.04565 144.53 3.04565C145.265 3.04565 145.795 3.17819 146.121 3.44327C146.468 3.70835 146.641 4.17733 146.641 4.85022V20.3572ZM142.787 11.9461C142.481 11.7626 142.124 11.6097 141.717 11.4873C141.309 11.365 140.87 11.3038 140.401 11.3038C139.26 11.3038 138.311 11.6708 137.557 12.4049C136.802 13.139 136.425 14.342 136.425 16.014C136.425 17.5841 136.782 18.7362 137.496 19.4702C138.23 20.1839 139.219 20.5407 140.463 20.5407C140.993 20.5407 141.441 20.4795 141.808 20.3572C142.196 20.2349 142.522 20.0921 142.787 19.929V11.9461Z" fill="white"/>
<path d="M156.287 20.6936C156.878 20.6936 157.419 20.6427 157.908 20.5407C158.398 20.4184 158.754 20.2756 158.979 20.1125V16.7175L156.012 16.9928C155.196 17.0743 154.574 17.2578 154.146 17.5433C153.718 17.8084 153.504 18.2366 153.504 18.8279C153.504 19.4192 153.718 19.878 154.146 20.2043C154.595 20.5305 155.308 20.6936 156.287 20.6936ZM156.165 8.24524C158.163 8.24524 159.754 8.67344 160.936 9.52984C162.139 10.3862 162.741 11.7116 162.741 13.506V20.5713C162.741 21.0607 162.618 21.4481 162.374 21.7336C162.129 22.019 161.823 22.2739 161.456 22.4982C160.885 22.8448 160.161 23.1201 159.285 23.324C158.408 23.5279 157.409 23.6299 156.287 23.6299C154.248 23.6299 152.637 23.2425 151.455 22.4676C150.292 21.6724 149.711 20.4897 149.711 18.9197C149.711 17.5535 150.139 16.5136 150.996 15.7999C151.873 15.0659 153.137 14.6173 154.788 14.4541L158.979 14.0259V13.4754C158.979 12.7006 158.693 12.1296 158.122 11.7626C157.572 11.3956 156.787 11.2121 155.767 11.2121C154.972 11.2121 154.197 11.314 153.443 11.5179C152.688 11.7014 152.015 11.9359 151.424 12.2214C151.2 12.0583 151.006 11.8442 150.843 11.5791C150.7 11.2936 150.629 10.9878 150.629 10.6615C150.629 10.2537 150.721 9.92745 150.904 9.68277C151.108 9.41769 151.424 9.1832 151.852 8.97929C152.444 8.73461 153.116 8.55109 153.871 8.42875C154.625 8.30641 155.39 8.24524 156.165 8.24524Z" fill="white"/>
<path d="M88.947 46.3568C88.947 48.5739 88.6202 50.535 87.9664 52.2404C87.3127 53.9458 86.4032 55.3812 85.2378 56.5465C84.1009 57.6835 82.7366 58.5504 81.1449 59.1473C79.5532 59.7157 77.8336 60 75.9861 60C74.1386 60 72.419 59.7157 70.8273 59.1473C69.2356 58.5504 67.8571 57.6835 66.6917 56.5465C65.5548 55.3812 64.6595 53.9458 64.0057 52.2404C63.352 50.535 63.0251 48.5739 63.0251 46.3568C63.0251 44.1398 63.352 42.1929 64.0057 40.5159C64.6879 38.8105 65.6117 37.3893 66.777 36.2524C67.9423 35.0871 69.3067 34.2202 70.8699 33.6517C72.4616 33.0548 74.167 32.7564 75.9861 32.7564C77.8052 32.7564 79.4964 33.0548 81.0596 33.6517C82.6513 34.2202 84.0298 35.0871 85.1952 36.2524C86.3605 37.3893 87.2701 38.8105 87.9238 40.5159C88.606 42.1929 88.947 44.1398 88.947 46.3568ZM83.2766 46.3568C83.2766 43.4008 82.6087 41.1554 81.2728 39.6206C79.9653 38.0573 78.2031 37.2757 75.9861 37.2757C73.7975 37.2757 72.0353 38.0431 70.6994 39.5779C69.3919 41.1128 68.7382 43.3724 68.7382 46.3568C68.7382 49.3413 69.3919 51.6009 70.6994 53.1358C72.0069 54.6706 73.7691 55.438 75.9861 55.438C78.2031 55.438 79.9653 54.6706 81.2728 53.1358C82.6087 51.6009 83.2766 49.3413 83.2766 46.3568Z" fill="white"/>
<path d="M112.28 55.3954C112.28 56.0491 112.137 56.575 111.853 56.9729C111.569 57.3708 111.143 57.7545 110.574 58.124C109.864 58.5788 108.926 58.9909 107.76 59.3604C106.595 59.7584 105.245 59.9573 103.71 59.9573C100.299 59.9573 97.5848 59.0904 95.5668 57.3566C93.5771 55.5944 92.5823 52.9084 92.5823 49.2986C92.5823 47.4227 92.8523 45.8168 93.3924 44.4809C93.9324 43.1166 94.6572 41.9939 95.5668 41.1128C96.5047 40.2317 97.599 39.5779 98.8496 39.1516C100.1 38.7252 101.45 38.5121 102.9 38.5121C103.667 38.5121 104.392 38.5973 105.074 38.7679C105.756 38.91 106.368 39.0947 106.908 39.3221V31.6052C107.135 31.52 107.462 31.4489 107.888 31.3921C108.343 31.3068 108.826 31.2642 109.338 31.2642C110.361 31.2642 111.1 31.4489 111.555 31.8184C112.038 32.1879 112.28 32.8416 112.28 33.7796V55.3954ZM106.908 43.6709C106.481 43.4151 105.984 43.2019 105.415 43.0313C104.847 42.8608 104.236 42.7755 103.582 42.7755C101.99 42.7755 100.669 43.2871 99.6171 44.3104C98.5654 45.3336 98.0396 47.0106 98.0396 49.3413C98.0396 51.5299 98.537 53.1358 99.5318 54.159C100.555 55.1538 101.934 55.6512 103.667 55.6512C104.406 55.6512 105.032 55.5659 105.543 55.3954C106.083 55.2249 106.538 55.0259 106.908 54.7985V43.6709Z" fill="white"/>
<path d="M137.664 49.2134C137.664 50.8619 137.408 52.3541 136.896 53.69C136.413 54.9975 135.717 56.1202 134.807 57.0582C133.897 57.9961 132.803 58.7209 131.524 59.2325C130.245 59.7157 128.81 59.9573 127.218 59.9573C125.626 59.9573 124.191 59.7157 122.912 59.2325C121.633 58.7209 120.539 58.0103 119.629 57.1008C118.72 56.1628 118.009 55.0401 117.497 53.7327C117.014 52.3968 116.773 50.8903 116.773 49.2134C116.773 47.5648 117.014 46.0868 117.497 44.7794C118.009 43.4435 118.72 42.3208 119.629 41.4112C120.567 40.4733 121.676 39.7627 122.955 39.2795C124.234 38.7679 125.655 38.5121 127.218 38.5121C128.781 38.5121 130.202 38.7679 131.481 39.2795C132.761 39.7627 133.855 40.4733 134.764 41.4112C135.702 42.3492 136.413 43.4861 136.896 44.822C137.408 46.1295 137.664 47.5933 137.664 49.2134ZM127.218 42.7755C125.683 42.7755 124.475 43.344 123.594 44.4809C122.713 45.5894 122.272 47.1669 122.272 49.2134C122.272 51.2883 122.699 52.88 123.551 53.9885C124.433 55.097 125.655 55.6512 127.218 55.6512C128.781 55.6512 129.989 55.097 130.842 53.9885C131.723 52.8515 132.164 51.2598 132.164 49.2134C132.164 47.1669 131.723 45.5894 130.842 44.4809C129.961 43.344 128.753 42.7755 127.218 42.7755Z" fill="white"/>
<path d="M155.456 46.3142C155.456 45.092 155.1 44.1967 154.39 43.6282C153.707 43.0598 152.77 42.7755 151.576 42.7755C150.751 42.7755 149.984 42.875 149.273 43.074C148.591 43.2729 147.994 43.5287 147.483 43.8414V59.2752C147.227 59.332 146.886 59.4031 146.46 59.4883C146.033 59.5736 145.55 59.6162 145.01 59.6162C144.015 59.6162 143.276 59.4315 142.793 59.062C142.31 58.6925 142.068 58.0388 142.068 57.1008V43.4151C142.068 42.7329 142.21 42.1786 142.495 41.7523C142.779 41.326 143.219 40.9138 143.816 40.5159C144.641 39.9474 145.735 39.4784 147.099 39.1089C148.463 38.711 149.97 38.5121 151.618 38.5121C154.546 38.5121 156.806 39.1658 158.397 40.4733C160.017 41.7523 160.827 43.6424 160.827 46.1437V59.2752C160.6 59.332 160.259 59.4031 159.804 59.4883C159.378 59.5736 158.909 59.6162 158.397 59.6162C157.374 59.6162 156.621 59.4315 156.138 59.062C155.683 58.6925 155.456 58.0388 155.456 57.1008V46.3142Z" fill="white"/>
<path d="M171.673 53.0505C171.673 53.96 171.943 54.6138 172.483 55.0117C173.052 55.4096 173.833 55.6086 174.828 55.6086C175.311 55.6086 175.794 55.5517 176.278 55.438C176.789 55.3243 177.244 55.1822 177.642 55.0117C177.869 55.2391 178.054 55.5233 178.196 55.8644C178.367 56.177 178.452 56.5465 178.452 56.9729C178.452 57.8256 178.068 58.5362 177.301 59.1046C176.533 59.6447 175.297 59.9147 173.592 59.9147C171.346 59.9147 169.57 59.4173 168.262 58.4225C166.983 57.3992 166.344 55.7223 166.344 53.3916V33.8222C166.571 33.7654 166.898 33.6943 167.324 33.6091C167.779 33.5238 168.262 33.4812 168.774 33.4812C169.769 33.4812 170.493 33.6659 170.948 34.0354C171.431 34.4049 171.673 35.0586 171.673 35.9966V39.5353H177.94C178.082 39.7627 178.21 40.0611 178.324 40.4306C178.438 40.8001 178.495 41.198 178.495 41.6244C178.495 42.3634 178.324 42.9034 177.983 43.2445C177.642 43.5856 177.187 43.7561 176.619 43.7561H171.673V53.0505Z" fill="white"/>
<path d="M202.198 49.2134C202.198 50.8619 201.943 52.3541 201.431 53.69C200.948 54.9975 200.252 56.1202 199.342 57.0582C198.432 57.9961 197.338 58.7209 196.059 59.2325C194.78 59.7157 193.345 59.9573 191.753 59.9573C190.161 59.9573 188.726 59.7157 187.447 59.2325C186.168 58.7209 185.074 58.0103 184.164 57.1008C183.254 56.1628 182.544 55.0401 182.032 53.7327C181.549 52.3968 181.307 50.8903 181.307 49.2134C181.307 47.5648 181.549 46.0868 182.032 44.7794C182.544 43.4435 183.254 42.3208 184.164 41.4112C185.102 40.4733 186.21 39.7627 187.49 39.2795C188.769 38.7679 190.19 38.5121 191.753 38.5121C193.316 38.5121 194.737 38.7679 196.016 39.2795C197.295 39.7627 198.39 40.4733 199.299 41.4112C200.237 42.3492 200.948 43.4861 201.431 44.822C201.943 46.1295 202.198 47.5933 202.198 49.2134ZM191.753 42.7755C190.218 42.7755 189.01 43.344 188.129 44.4809C187.248 45.5894 186.807 47.1669 186.807 49.2134C186.807 51.2883 187.234 52.88 188.086 53.9885C188.968 55.097 190.19 55.6512 191.753 55.6512C193.316 55.6512 194.524 55.097 195.377 53.9885C196.258 52.8515 196.699 51.2598 196.699 49.2134C196.699 47.1669 196.258 45.5894 195.377 44.4809C194.496 43.344 193.288 42.7755 191.753 42.7755Z" fill="white"/>
<path d="M49.6638 43.2575H58.973C59.1646 43.564 59.3178 43.9662 59.4327 44.4643C59.586 44.9623 59.6626 45.4986 59.6626 46.0733C59.6626 47.1076 59.4136 47.8738 58.9155 48.3718C58.4175 48.8315 57.7471 49.0614 56.9043 49.0614H49.6638V59.5199C49.3573 59.6348 48.9168 59.7497 48.3421 59.8647C47.7675 59.9413 47.1929 59.9796 46.6182 59.9796C45.4306 59.9796 44.5303 59.7689 43.9174 59.3475C43.3428 58.8878 43.0554 58.0258 43.0554 56.7616V49.0614H33.5738C33.3823 48.7166 33.2099 48.3144 33.0567 47.8547C32.9417 47.3566 32.8843 46.8203 32.8843 46.2457C32.8843 45.2113 33.1333 44.4643 33.6313 44.0046C34.1293 43.5065 34.8189 43.2575 35.7 43.2575H43.0554V32.9714C43.4002 32.8565 43.8599 32.7607 44.4346 32.6841C45.0092 32.5692 45.5839 32.5117 46.1585 32.5117C47.3078 32.5117 48.1697 32.7416 48.7444 33.2013C49.3573 33.6227 49.6638 34.4655 49.6638 35.7297V43.2575Z" fill="white"/>
<path d="M42.2292 3.8377H39.6876V1.91885C39.6876 0.85907 38.8124 0 37.7326 0C36.6528 0 35.7775 0.85907 35.7775 1.91885V3.8377H26.882V1.91885C26.882 0.85907 26.0067 0 24.927 0C23.8472 0 22.9719 0.85907 22.9719 1.91885V3.8377H14.1742V1.91885C14.1742 0.85907 13.2989 0 12.2191 0C11.1393 0 10.264 0.85907 10.264 1.91885V3.8377H7.82022C3.50815 3.8377 0 7.28089 0 11.5131V41.4472C0 45.6794 3.50815 49.1226 7.82022 49.1226H24.1481C25.2279 49.1226 26.1032 48.2635 26.1032 47.2037C26.1032 46.144 25.2279 45.2849 24.1481 45.2849H7.82022C5.66419 45.2849 3.91011 43.5633 3.91011 41.4472V11.5131C3.91011 9.397 5.66419 7.67541 7.82022 7.67541H10.264V9.59426C10.264 10.654 11.1393 11.5131 12.2191 11.5131C13.2989 11.5131 14.1742 10.654 14.1742 9.59426V7.67541H22.9719V9.59426C22.9719 10.654 23.8472 11.5131 24.927 11.5131C26.0067 11.5131 26.882 10.654 26.882 9.59426V7.67541H35.7775V9.59426C35.7775 10.654 36.6528 11.5131 37.7326 11.5131C38.8124 11.5131 39.6876 10.654 39.6876 9.59426V7.67541H42.2292C44.3852 7.67541 46.1393 9.397 46.1393 11.5131V23.8314C46.1393 24.8911 47.0146 25.7502 48.0944 25.7502C49.1742 25.7502 50.0494 24.8911 50.0494 23.8314V11.5131C50.0494 7.28089 46.5413 3.8377 42.2292 3.8377Z" fill="white"/>
<path d="M26.3358 18.222C25.5027 18.654 24.5078 18.6539 23.6747 18.222C20.075 16.3559 15.7563 18.9851 15.7563 23.0414C15.7563 25.5943 17.8727 36.1468 21.1816 36.1468C22.3423 36.1468 23.3986 34.9627 24.411 32.5269C24.6299 32.0004 25.3807 32.0002 25.5995 32.5269C26.6119 34.9627 27.6682 36.1468 28.8289 36.1468C32.1054 36.1468 34.2542 25.6755 34.2542 23.0414C34.2541 18.9864 29.937 16.3551 26.3358 18.222ZM28.8289 35.1808C28.1424 35.1808 27.2905 34.0784 26.4916 32.1562C25.9427 30.8355 24.0681 30.8348 23.5189 32.1562C22.7201 34.0784 21.8681 35.1808 21.1816 35.1808C19.0656 35.1808 16.7224 26.0391 16.7224 23.0415C16.7224 19.7038 20.2762 17.5485 23.2301 19.0797C24.3417 19.656 25.6689 19.656 26.7804 19.0797C29.7314 17.55 33.288 19.7006 33.288 23.0415C33.2881 26.0263 30.9465 35.1808 28.8289 35.1808Z" fill="white"/>
<path d="M22.1084 20.7972C20.3599 20.7972 18.9373 22.2198 18.9373 23.9683C18.9373 24.2351 19.1536 24.4513 19.4204 24.4513C19.6871 24.4513 19.9034 24.2351 19.9034 23.9683C19.9034 22.7524 20.8925 21.7633 22.1084 21.7633C22.3752 21.7633 22.5915 21.5471 22.5915 21.2803C22.5915 21.0135 22.3752 20.7972 22.1084 20.7972Z" fill="white"/>
<path d="M26.3358 18.222C25.5027 18.654 24.5078 18.6539 23.6747 18.222C20.075 16.3559 15.7563 18.9851 15.7563 23.0414C15.7563 25.5943 17.8727 36.1468 21.1816 36.1468C22.3423 36.1468 23.3986 34.9627 24.411 32.5269C24.6299 32.0004 25.3807 32.0002 25.5995 32.5269C26.6119 34.9627 27.6682 36.1468 28.8289 36.1468C32.1054 36.1468 34.2542 25.6755 34.2542 23.0414C34.2541 18.9864 29.937 16.3551 26.3358 18.222ZM28.8289 35.1808C28.1424 35.1808 27.2905 34.0784 26.4916 32.1562C25.9427 30.8355 24.0681 30.8348 23.5189 32.1562C22.7201 34.0784 21.8681 35.1808 21.1816 35.1808C19.0656 35.1808 16.7224 26.0391 16.7224 23.0415C16.7224 19.7038 20.2762 17.5485 23.2301 19.0797C24.3417 19.656 25.6689 19.656 26.7804 19.0797C29.7314 17.55 33.288 19.7006 33.288 23.0415C33.2881 26.0263 30.9465 35.1808 28.8289 35.1808Z" stroke="white"/>
<path d="M22.1084 20.7972C20.3599 20.7972 18.9373 22.2198 18.9373 23.9683C18.9373 24.2351 19.1536 24.4513 19.4204 24.4513C19.6871 24.4513 19.9034 24.2351 19.9034 23.9683C19.9034 22.7524 20.8925 21.7633 22.1084 21.7633C22.3752 21.7633 22.5915 21.5471 22.5915 21.2803C22.5915 21.0135 22.3752 20.7972 22.1084 20.7972Z" stroke="white"/>
</svg>
