<svg width="376" height="262" viewBox="0 0 376 262" fill="none" xmlns="http://www.w3.org/2000/svg">
<path d="M186.765 261.53C258.562 261.53 316.765 203.327 316.765 131.53C316.765 59.7325 258.562 1.52942 186.765 1.52942C114.968 1.52942 56.7647 59.7325 56.7647 131.53C56.7647 203.327 114.968 261.53 186.765 261.53Z" fill="#FAD24D"/>
<mask id="mask0" mask-type="alpha" maskUnits="userSpaceOnUse" x="56" y="1" width="261" height="261">
<path d="M186.765 261.53C258.562 261.53 316.765 203.327 316.765 131.53C316.765 59.7325 258.562 1.52942 186.765 1.52942C114.968 1.52942 56.7647 59.7325 56.7647 131.53C56.7647 203.327 114.968 261.53 186.765 261.53Z" fill="#FAD24D"/>
</mask>
<g mask="url(#mask0)">
<path d="M25.2888 235.127H351.129C350.05 236.811 348.937 238.47 347.807 240.118H28.6133C27.484 238.47 26.369 236.811 25.2888 235.127Z" fill="#EDB937"/>
</g>
<path d="M32.1145 26.6818H312.002C321.198 26.6818 328.721 34.2047 328.721 43.4009V215.816H15.3962V43.4009C15.3962 34.2055 22.9191 26.6818 32.1145 26.6818Z" fill="#666666"/>
<path d="M27 204.427H317.621V43.3656C317.621 40.4376 315.184 38 312.256 38H32.3678C29.4399 38 27.0023 40.4376 27.0023 43.3656V204.427H27Z" fill="white"/>
<path d="M140.966 107.794H132.834C132.568 108.669 132.278 109.579 131.963 110.525C131.673 111.47 131.431 112.25 131.237 112.865C130.995 112.96 130.729 113.042 130.438 113.113C130.172 113.184 129.833 113.22 129.422 113.22C128.599 113.22 127.958 113.066 127.498 112.759C127.038 112.428 126.808 111.967 126.808 111.376C126.808 111.092 126.844 110.82 126.917 110.56C127.014 110.276 127.123 109.957 127.244 109.603C127.437 108.941 127.691 108.149 128.006 107.227C128.345 106.281 128.696 105.264 129.059 104.177C129.446 103.066 129.857 101.931 130.293 100.773C130.729 99.5905 131.14 98.4557 131.527 97.3682C131.939 96.2571 132.326 95.2287 132.689 94.283C133.076 93.3137 133.403 92.4863 133.669 91.8007C133.984 91.6352 134.444 91.4697 135.049 91.3042C135.678 91.1387 136.307 91.056 136.937 91.056C137.784 91.056 138.558 91.186 139.26 91.4461C139.962 91.6825 140.41 92.0726 140.603 92.6163C141.087 93.9166 141.62 95.4178 142.201 97.12C142.782 98.7985 143.362 100.536 143.943 102.333C144.548 104.13 145.129 105.891 145.686 107.617C146.243 109.342 146.739 110.891 147.174 112.262C146.932 112.522 146.594 112.735 146.158 112.9C145.746 113.09 145.25 113.184 144.669 113.184C143.822 113.184 143.217 113.042 142.854 112.759C142.515 112.451 142.249 111.978 142.056 111.34L140.966 107.794ZM136.9 95.0986C136.683 95.6897 136.441 96.3516 136.174 97.0845C135.932 97.8174 135.666 98.5857 135.376 99.3895C135.109 100.17 134.831 100.973 134.541 101.801C134.25 102.605 133.972 103.397 133.706 104.177H140.023L137.082 95.0986H136.9Z" fill="#7367F0"/>
<path d="M161.205 111.411C160.721 111.647 160.152 111.848 159.498 112.014C158.869 112.179 158.131 112.262 157.284 112.262C156.195 112.262 155.166 112.12 154.198 111.837C153.23 111.529 152.383 111.045 151.657 110.383C150.931 109.721 150.35 108.87 149.914 107.829C149.503 106.766 149.297 105.477 149.297 103.964C149.297 102.593 149.503 101.387 149.914 100.347C150.35 99.2831 150.955 98.3966 151.729 97.6873C152.528 96.9781 153.472 96.4462 154.561 96.0916C155.65 95.737 156.86 95.5596 158.191 95.5596C159.45 95.5596 160.6 95.7133 161.64 96.0206C162.705 96.328 163.552 96.6826 164.182 97.0845C164.617 97.3682 164.956 97.6874 165.198 98.042C165.464 98.3966 165.597 98.8458 165.597 99.3895V113.078C165.597 114.283 165.368 115.324 164.908 116.198C164.472 117.073 163.867 117.782 163.092 118.326C162.318 118.893 161.41 119.307 160.37 119.567C159.329 119.827 158.204 119.957 156.993 119.957C155.735 119.957 154.634 119.839 153.69 119.603C152.77 119.39 152.08 119.142 151.62 118.858C150.822 118.362 150.422 117.7 150.422 116.872C150.422 116.423 150.519 116.033 150.713 115.702C150.906 115.371 151.136 115.123 151.403 114.957C152.032 115.335 152.794 115.666 153.69 115.95C154.585 116.234 155.541 116.376 156.558 116.376C158.01 116.376 159.147 116.104 159.97 115.56C160.793 115.016 161.205 114.142 161.205 112.936V111.411ZM158.046 108.787C158.748 108.787 159.341 108.692 159.825 108.503C160.333 108.314 160.769 108.089 161.132 107.829V99.8151C160.793 99.6259 160.394 99.4604 159.934 99.3186C159.498 99.1767 158.966 99.1058 158.337 99.1058C157.006 99.1058 155.929 99.5077 155.106 100.312C154.307 101.092 153.908 102.309 153.908 103.964C153.908 104.862 154.004 105.619 154.198 106.234C154.416 106.848 154.706 107.345 155.069 107.723C155.457 108.101 155.904 108.373 156.413 108.539C156.921 108.704 157.465 108.787 158.046 108.787Z" fill="#7367F0"/>
<path d="M173.867 106.482C174.206 107.688 174.835 108.562 175.755 109.106C176.674 109.65 177.812 109.922 179.167 109.922C180.184 109.922 181.115 109.78 181.963 109.496C182.834 109.189 183.536 108.87 184.068 108.539C184.407 108.728 184.685 108.988 184.903 109.319C185.121 109.65 185.23 110.004 185.23 110.383C185.23 110.855 185.06 111.281 184.722 111.659C184.407 112.014 183.959 112.321 183.378 112.581C182.822 112.841 182.156 113.042 181.382 113.184C180.607 113.326 179.772 113.397 178.877 113.397C177.449 113.397 176.142 113.208 174.956 112.83C173.794 112.451 172.79 111.884 171.943 111.127C171.12 110.347 170.466 109.39 169.982 108.255C169.522 107.12 169.292 105.796 169.292 104.283C169.292 102.817 169.522 101.541 169.982 100.453C170.442 99.3659 171.059 98.4557 171.834 97.7228C172.632 96.9899 173.552 96.4462 174.593 96.0916C175.634 95.737 176.735 95.5596 177.897 95.5596C179.082 95.5596 180.172 95.7488 181.164 96.127C182.156 96.4817 183.003 96.9899 183.705 97.6519C184.407 98.2902 184.952 99.0704 185.339 99.9924C185.75 100.891 185.956 101.872 185.956 102.936C185.956 103.598 185.774 104.094 185.411 104.425C185.073 104.756 184.589 104.969 183.959 105.063L173.867 106.482ZM177.897 98.9285C176.711 98.9285 175.718 99.3186 174.92 100.099C174.121 100.855 173.673 101.943 173.576 103.361L181.636 102.191C181.539 101.316 181.188 100.56 180.583 99.9214C179.978 99.2595 179.082 98.9285 177.897 98.9285Z" fill="#7367F0"/>
<path d="M200.92 102.049C200.92 101.033 200.617 100.288 200.012 99.8151C199.431 99.3422 198.633 99.1058 197.616 99.1058C196.914 99.1058 196.261 99.1886 195.656 99.3541C195.075 99.5195 194.566 99.7323 194.131 99.9924V112.83C193.913 112.877 193.623 112.936 193.26 113.007C192.897 113.078 192.485 113.113 192.025 113.113C191.178 113.113 190.549 112.96 190.137 112.652C189.726 112.345 189.52 111.801 189.52 111.021V99.6377C189.52 99.0704 189.641 98.6094 189.883 98.2547C190.125 97.9001 190.5 97.5573 191.009 97.2263C191.711 96.7535 192.642 96.3634 193.804 96.0561C194.966 95.7251 196.249 95.5596 197.652 95.5596C200.145 95.5596 202.069 96.1034 203.425 97.1909C204.804 98.2547 205.494 99.8269 205.494 101.907V112.83C205.3 112.877 205.01 112.936 204.623 113.007C204.26 113.078 203.86 113.113 203.425 113.113C202.553 113.113 201.912 112.96 201.501 112.652C201.113 112.345 200.92 111.801 200.92 111.021V102.049Z" fill="#7367F0"/>
<path d="M226.056 109.603C226.056 110.146 225.935 110.584 225.693 110.915C225.451 111.246 225.088 111.565 224.604 111.872C223.999 112.25 223.2 112.593 222.208 112.9C221.215 113.231 220.066 113.397 218.759 113.397C215.854 113.397 213.543 112.676 211.825 111.234C210.131 109.768 209.283 107.534 209.283 104.531C209.283 102.971 209.513 101.635 209.973 100.524C210.433 99.3895 211.05 98.4557 211.825 97.7228C212.623 96.9899 213.555 96.4462 214.62 96.0916C215.685 95.737 216.835 95.5596 218.069 95.5596C218.722 95.5596 219.34 95.6306 219.92 95.7724C220.501 95.8906 221.022 96.0443 221.482 96.2334V89.8148C221.675 89.7439 221.953 89.6848 222.317 89.6375C222.704 89.5666 223.115 89.5311 223.551 89.5311C224.422 89.5311 225.051 89.6848 225.439 89.9921C225.85 90.2995 226.056 90.8432 226.056 91.6234V109.603ZM221.482 99.8505C221.118 99.6377 220.695 99.4604 220.211 99.3186C219.727 99.1767 219.206 99.1058 218.65 99.1058C217.294 99.1058 216.169 99.5314 215.274 100.382C214.378 101.234 213.93 102.628 213.93 104.567C213.93 106.387 214.354 107.723 215.201 108.574C216.072 109.402 217.246 109.815 218.722 109.815C219.352 109.815 219.884 109.744 220.32 109.603C220.78 109.461 221.167 109.295 221.482 109.106V99.8505Z" fill="#7367F0"/>
<path d="M237.505 109.993C238.207 109.993 238.849 109.933 239.43 109.815C240.01 109.673 240.434 109.508 240.7 109.319V105.383L237.179 105.702C236.211 105.796 235.472 106.009 234.964 106.34C234.456 106.647 234.202 107.144 234.202 107.829C234.202 108.515 234.456 109.047 234.964 109.425C235.497 109.803 236.344 109.993 237.505 109.993ZM237.36 95.5596C239.732 95.5596 241.62 96.0561 243.024 97.049C244.452 98.042 245.166 99.5786 245.166 101.659V109.851C245.166 110.418 245.02 110.867 244.73 111.198C244.439 111.529 244.076 111.825 243.641 112.085C242.963 112.487 242.104 112.806 241.063 113.042C240.022 113.279 238.837 113.397 237.505 113.397C235.085 113.397 233.173 112.948 231.769 112.049C230.39 111.127 229.7 109.756 229.7 107.936C229.7 106.352 230.208 105.146 231.225 104.319C232.266 103.468 233.766 102.948 235.727 102.758L240.7 102.262V101.624C240.7 100.725 240.361 100.063 239.684 99.6377C239.03 99.2122 238.098 98.9994 236.888 98.9994C235.944 98.9994 235.025 99.1176 234.129 99.3541C233.234 99.5668 232.435 99.8387 231.733 100.17C231.467 99.9805 231.237 99.7323 231.043 99.425C230.874 99.094 230.789 98.7394 230.789 98.3611C230.789 97.8883 230.898 97.51 231.116 97.2263C231.358 96.919 231.733 96.6471 232.241 96.4107C232.943 96.127 233.742 95.9143 234.637 95.7724C235.533 95.6306 236.441 95.5596 237.36 95.5596Z" fill="#7367F0"/>
<path d="M157.576 139.747C157.576 142.318 157.188 144.591 156.412 146.569C155.636 148.546 154.557 150.21 153.173 151.561C151.824 152.879 150.204 153.885 148.315 154.577C146.426 155.236 144.385 155.565 142.192 155.565C139.999 155.565 137.958 155.236 136.069 154.577C134.179 153.885 132.543 152.879 131.16 151.561C129.81 150.21 128.748 148.546 127.972 146.569C127.196 144.591 126.808 142.318 126.808 139.747C126.808 137.177 127.196 134.919 127.972 132.975C128.782 130.998 129.878 129.35 131.261 128.032C132.644 126.681 134.264 125.676 136.119 125.017C138.009 124.324 140.033 123.978 142.192 123.978C144.351 123.978 146.358 124.324 148.214 125.017C150.103 125.676 151.739 126.681 153.123 128.032C154.506 129.35 155.585 130.998 156.361 132.975C157.171 134.919 157.576 137.177 157.576 139.747ZM150.845 139.747C150.845 136.32 150.053 133.716 148.467 131.937C146.915 130.124 144.823 129.218 142.192 129.218C139.594 129.218 137.503 130.108 135.917 131.888C134.365 133.667 133.589 136.287 133.589 139.747C133.589 143.207 134.365 145.827 135.917 147.607C137.469 149.386 139.56 150.276 142.192 150.276C144.823 150.276 146.915 149.386 148.467 147.607C150.053 145.827 150.845 143.207 150.845 139.747Z" fill="#7367F0"/>
<path d="M185.271 150.227C185.271 150.985 185.102 151.594 184.764 152.056C184.427 152.517 183.921 152.962 183.246 153.39C182.403 153.918 181.29 154.395 179.906 154.824C178.523 155.285 176.921 155.516 175.099 155.516C171.05 155.516 167.829 154.511 165.433 152.5C163.072 150.457 161.891 147.343 161.891 143.158C161.891 140.983 162.211 139.121 162.852 137.572C163.493 135.99 164.354 134.689 165.433 133.667C166.547 132.645 167.845 131.888 169.33 131.393C170.814 130.899 172.417 130.652 174.137 130.652C175.048 130.652 175.909 130.751 176.718 130.948C177.528 131.113 178.253 131.327 178.894 131.591V122.644C179.164 122.545 179.552 122.463 180.058 122.397C180.598 122.298 181.172 122.248 181.779 122.248C182.993 122.248 183.87 122.463 184.41 122.891C184.984 123.319 185.271 124.077 185.271 125.165V150.227ZM178.894 136.633C178.388 136.336 177.798 136.089 177.123 135.891C176.448 135.694 175.723 135.595 174.947 135.595C173.058 135.595 171.489 136.188 170.241 137.374C168.992 138.561 168.368 140.505 168.368 143.207C168.368 145.745 168.959 147.607 170.14 148.793C171.354 149.947 172.99 150.523 175.048 150.523C175.925 150.523 176.668 150.424 177.275 150.227C177.916 150.029 178.456 149.798 178.894 149.535V136.633Z" fill="#7367F0"/>
<path d="M215.4 143.059C215.4 144.97 215.096 146.701 214.489 148.249C213.916 149.765 213.089 151.067 212.01 152.154C210.93 153.242 209.631 154.082 208.113 154.675C206.595 155.236 204.891 155.516 203.002 155.516C201.113 155.516 199.409 155.236 197.891 154.675C196.372 154.082 195.074 153.258 193.994 152.204C192.914 151.116 192.071 149.815 191.464 148.299C190.89 146.75 190.603 145.003 190.603 143.059C190.603 141.148 190.89 139.434 191.464 137.918C192.071 136.369 192.914 135.068 193.994 134.013C195.107 132.926 196.423 132.102 197.941 131.541C199.459 130.948 201.146 130.652 203.002 130.652C204.857 130.652 206.544 130.948 208.062 131.541C209.58 132.102 210.879 132.926 211.959 134.013C213.072 135.101 213.916 136.419 214.489 137.968C215.096 139.484 215.4 141.181 215.4 143.059ZM203.002 135.595C201.18 135.595 199.746 136.254 198.7 137.572C197.654 138.857 197.132 140.686 197.132 143.059C197.132 145.465 197.638 147.31 198.65 148.595C199.696 149.881 201.146 150.523 203.002 150.523C204.857 150.523 206.291 149.881 207.303 148.595C208.349 147.277 208.872 145.432 208.872 143.059C208.872 140.686 208.349 138.857 207.303 137.572C206.257 136.254 204.824 135.595 203.002 135.595Z" fill="#7367F0"/>
<path d="M236.518 139.698C236.518 138.281 236.097 137.243 235.253 136.584C234.444 135.924 233.33 135.595 231.913 135.595C230.935 135.595 230.024 135.71 229.181 135.941C228.371 136.172 227.662 136.468 227.055 136.831V154.725C226.752 154.791 226.347 154.873 225.841 154.972C225.335 155.071 224.761 155.12 224.12 155.12C222.939 155.12 222.062 154.906 221.489 154.478C220.915 154.049 220.628 153.291 220.628 152.204V136.336C220.628 135.545 220.797 134.903 221.134 134.409C221.472 133.914 221.995 133.436 222.703 132.975C223.681 132.316 224.98 131.772 226.6 131.344C228.219 130.882 230.007 130.652 231.964 130.652C235.439 130.652 238.121 131.41 240.01 132.926C241.933 134.409 242.895 136.6 242.895 139.5V154.725C242.625 154.791 242.22 154.873 241.68 154.972C241.174 155.071 240.617 155.12 240.01 155.12C238.796 155.12 237.902 154.906 237.328 154.478C236.788 154.049 236.518 153.291 236.518 152.204V139.698Z" fill="#7367F0"/>
<path d="M255.768 147.508C255.768 148.562 256.088 149.32 256.729 149.782C257.404 150.243 258.332 150.474 259.513 150.474C260.086 150.474 260.66 150.408 261.233 150.276C261.84 150.144 262.38 149.979 262.853 149.782C263.122 150.045 263.342 150.375 263.51 150.77C263.713 151.133 263.814 151.561 263.814 152.056C263.814 153.044 263.359 153.868 262.448 154.527C261.537 155.153 260.069 155.466 258.045 155.466C255.38 155.466 253.271 154.89 251.719 153.736C250.201 152.55 249.442 150.606 249.442 147.903V125.214C249.712 125.148 250.1 125.066 250.606 124.967C251.146 124.868 251.719 124.819 252.327 124.819C253.507 124.819 254.368 125.033 254.907 125.461C255.481 125.89 255.768 126.648 255.768 127.735V131.838H263.207C263.375 132.102 263.527 132.448 263.662 132.876C263.797 133.305 263.865 133.766 263.865 134.26C263.865 135.117 263.662 135.743 263.257 136.139C262.853 136.534 262.313 136.732 261.638 136.732H255.768V147.508Z" fill="#7367F0"/>
<path d="M292 143.059C292 144.97 291.696 146.701 291.089 148.249C290.516 149.765 289.689 151.067 288.609 152.154C287.53 153.242 286.231 154.082 284.713 154.675C283.195 155.236 281.491 155.516 279.602 155.516C277.712 155.516 276.009 155.236 274.491 154.675C272.972 154.082 271.674 153.258 270.594 152.204C269.514 151.116 268.671 149.815 268.064 148.299C267.49 146.75 267.203 145.003 267.203 143.059C267.203 141.148 267.49 139.434 268.064 137.918C268.671 136.369 269.514 135.068 270.594 134.013C271.707 132.926 273.023 132.102 274.541 131.541C276.059 130.948 277.746 130.652 279.602 130.652C281.457 130.652 283.144 130.948 284.662 131.541C286.18 132.102 287.479 132.926 288.559 134.013C289.672 135.101 290.516 136.419 291.089 137.968C291.696 139.484 292 141.181 292 143.059ZM279.602 135.595C277.78 135.595 276.346 136.254 275.3 137.572C274.254 138.857 273.731 140.686 273.731 143.059C273.731 145.465 274.238 147.31 275.25 148.595C276.295 149.881 277.746 150.523 279.602 150.523C281.457 150.523 282.891 149.881 283.903 148.595C284.949 147.277 285.472 145.432 285.472 143.059C285.472 140.686 284.949 138.857 283.903 137.572C282.857 136.254 281.423 135.595 279.602 135.595Z" fill="#7367F0"/>
<path d="M110.949 136.154H121.998C122.226 136.509 122.407 136.975 122.544 137.553C122.726 138.13 122.817 138.752 122.817 139.418C122.817 140.618 122.521 141.506 121.93 142.083C121.339 142.616 120.543 142.883 119.543 142.883H110.949V155.009C110.585 155.142 110.062 155.275 109.38 155.408C108.698 155.497 108.016 155.542 107.334 155.542C105.924 155.542 104.855 155.297 104.128 154.809C103.446 154.276 103.105 153.276 103.105 151.811V142.883H91.8506C91.6232 142.483 91.4186 142.017 91.2367 141.484C91.1003 140.906 91.0321 140.284 91.0321 139.618C91.0321 138.419 91.3277 137.553 91.9188 137.02C92.5099 136.442 93.3284 136.154 94.3743 136.154H103.105V124.228C103.514 124.095 104.06 123.983 104.742 123.895C105.424 123.761 106.106 123.695 106.788 123.695C108.152 123.695 109.175 123.961 109.857 124.494C110.585 124.983 110.949 125.96 110.949 127.426V136.154Z" fill="#7367F0"/>
<path d="M102.124 90.4495H99.1073V88.2248C99.1073 86.996 98.0684 86 96.7868 86C95.5051 86 94.4662 86.996 94.4662 88.2248V90.4495H83.9077V88.2248C83.9077 86.996 82.8688 86 81.5871 86C80.3055 86 79.2666 86.996 79.2666 88.2248V90.4495H68.824V88.2248C68.824 86.996 67.7851 86 66.5035 86C65.2218 86 64.1829 86.996 64.1829 88.2248V90.4495H61.2822C56.164 90.4495 52 94.4416 52 99.3485V134.055C52 138.962 56.164 142.954 61.2822 142.954H80.6627C81.9443 142.954 82.9832 141.958 82.9832 140.729C82.9832 139.5 81.9443 138.504 80.6627 138.504H61.2822C58.7231 138.504 56.6411 136.508 56.6411 134.055V99.3485C56.6411 96.8951 58.7231 94.899 61.2822 94.899H64.1829V97.1238C64.1829 98.3525 65.2218 99.3485 66.5035 99.3485C67.7851 99.3485 68.824 98.3525 68.824 97.1238V94.899H79.2666V97.1238C79.2666 98.3525 80.3055 99.3485 81.5871 99.3485C82.8688 99.3485 83.9077 98.3525 83.9077 97.1238V94.899H94.4662V97.1238C94.4662 98.3525 95.5051 99.3485 96.7868 99.3485C98.0684 99.3485 99.1073 98.3525 99.1073 97.1238V94.899H102.124C104.683 94.899 106.765 96.8951 106.765 99.3485V113.631C106.765 114.859 107.804 115.855 109.086 115.855C110.367 115.855 111.406 114.859 111.406 113.631V99.3485C111.406 94.4416 107.242 90.4495 102.124 90.4495Z" fill="#7367F0"/>
<path d="M83.2593 107.127C82.2704 107.628 81.0895 107.628 80.1007 107.127C75.828 104.963 70.702 108.012 70.702 112.715C70.702 115.675 73.214 127.909 77.1415 127.909C78.5192 127.909 79.773 126.537 80.9747 123.712C81.2344 123.102 82.1256 123.102 82.3854 123.712C83.5871 126.537 84.8408 127.909 86.2185 127.909C90.1075 127.909 92.6581 115.769 92.6581 112.715C92.658 108.013 87.5338 104.962 83.2593 107.127ZM86.2184 126.789C85.4036 126.789 84.3925 125.511 83.4443 123.283C82.7926 121.751 80.5676 121.751 79.9157 123.283C78.9676 125.511 77.9564 126.789 77.1416 126.789C74.6299 126.789 71.8487 116.19 71.8487 112.715C71.8487 108.845 76.0668 106.346 79.573 108.121C80.8924 108.79 82.4677 108.79 83.787 108.121C87.2896 106.348 91.5113 108.841 91.5113 112.715C91.5113 116.175 88.7319 126.789 86.2184 126.789Z" fill="#7367F0"/>
<path d="M78.2416 110.113C76.1662 110.113 74.4776 111.762 74.4776 113.789C74.4776 114.099 74.7344 114.349 75.051 114.349C75.3676 114.349 75.6244 114.099 75.6244 113.789C75.6244 112.38 76.7984 111.233 78.2416 111.233C78.5582 111.233 78.815 110.982 78.815 110.673C78.815 110.363 78.5582 110.113 78.2416 110.113Z" fill="#7367F0"/>
<path d="M0.178749 215.816H343.94V225.471C343.94 230.781 339.594 235.127 334.284 235.127H9.8319C4.52225 235.127 0.176483 230.781 0.176483 225.471V215.816H0.178749Z" fill="#B6B6B8"/>
<path d="M137.748 219.344H206.368L199.018 224.226H145.098L137.747 219.344H137.748Z" fill="#919191"/>
<path d="M244.961 87.3916H347.765C351.025 87.3916 353.668 90.034 353.668 93.2942V229.223C353.668 232.484 351.025 235.126 347.765 235.126H244.961C241.7 235.126 239.058 232.484 239.058 229.223V93.2942C239.058 90.034 241.701 87.3916 244.961 87.3916Z" fill="#666666"/>
<path d="M245.685 96H345.944C346.322 96 346.629 96.3067 346.629 96.6851V218.763C346.629 219.141 346.322 219.448 345.944 219.448H245.685C245.307 219.448 245 219.141 245 218.763V96.6859C245 96.3074 245.307 96 245.685 96Z" fill="white"/>
<path d="M311.125 139.363H308.891V137.681C308.891 136.753 308.121 136 307.172 136C306.223 136 305.453 136.753 305.453 137.681V139.363H297.633V137.681C297.633 136.753 296.863 136 295.914 136C294.965 136 294.195 136.753 294.195 137.681V139.363H286.461V137.681C286.461 136.753 285.691 136 284.742 136C283.793 136 283.023 136.753 283.023 137.681V139.363H280.875C277.084 139.363 274 142.38 274 146.088V172.318C274 176.026 277.084 179.043 280.875 179.043H295.229C296.179 179.043 296.948 178.291 296.948 177.362C296.948 176.433 296.179 175.681 295.229 175.681H280.875C278.98 175.681 277.437 174.172 277.437 172.318V146.088C277.437 144.234 278.98 142.726 280.875 142.726H283.023V144.407C283.023 145.336 283.793 146.088 284.742 146.088C285.691 146.088 286.461 145.336 286.461 144.407V142.726H294.195V144.407C294.195 145.336 294.965 146.088 295.914 146.088C296.863 146.088 297.633 145.336 297.633 144.407V142.726H305.453V144.407C305.453 145.336 306.223 146.088 307.172 146.088C308.121 146.088 308.891 145.336 308.891 144.407V142.726H311.125C313.02 142.726 314.562 144.234 314.562 146.088V156.882C314.562 157.811 315.332 158.564 316.281 158.564C317.231 158.564 318 157.811 318 156.882V146.088C318 142.38 314.916 139.363 311.125 139.363Z" fill="#7367F0"/>
<path d="M297.153 151.967C296.42 152.345 295.546 152.345 294.813 151.967C291.648 150.332 287.852 152.636 287.852 156.19C287.852 158.427 289.712 167.674 292.621 167.674C293.642 167.674 294.57 166.636 295.46 164.502C295.653 164.04 296.313 164.04 296.505 164.502C297.395 166.636 298.324 167.674 299.344 167.674C302.225 167.674 304.114 158.498 304.114 156.19C304.114 152.637 300.319 150.331 297.153 151.967ZM299.344 166.827C298.741 166.827 297.992 165.861 297.29 164.177C296.807 163.019 295.159 163.019 294.676 164.177C293.974 165.861 293.225 166.827 292.621 166.827C290.761 166.827 288.701 158.817 288.701 156.19C288.701 153.265 291.825 151.377 294.422 152.719C295.399 153.223 296.566 153.223 297.543 152.719C300.138 151.378 303.265 153.263 303.265 156.19C303.265 158.805 301.206 166.827 299.344 166.827Z" fill="#7367F0"/>
<path d="M293.436 154.223C291.899 154.223 290.648 155.47 290.648 157.002C290.648 157.236 290.838 157.425 291.073 157.425C291.308 157.425 291.498 157.236 291.498 157.002C291.498 155.937 292.367 155.07 293.436 155.07C293.671 155.07 293.861 154.881 293.861 154.647C293.861 154.413 293.671 154.223 293.436 154.223Z" fill="#7367F0"/>
<path d="M296.365 231.812C298.491 231.812 300.215 230.089 300.215 227.963C300.215 225.837 298.491 224.113 296.365 224.113C294.239 224.113 292.516 225.837 292.516 227.963C292.516 230.089 294.239 231.812 296.365 231.812Z" fill="#B6B6B8"/>
<path d="M325.295 140.268H372.923C374.578 140.268 375.919 141.61 375.919 143.264V232.13C375.919 233.785 374.577 235.126 372.923 235.126H325.295C323.64 235.126 322.299 233.784 322.299 232.13V143.264C322.299 141.61 323.64 140.268 325.295 140.268Z" fill="#666666"/>
<path d="M328.295 149H371.462C371.625 149 371.758 149.132 371.758 149.295V225.803C371.758 225.966 371.625 226.098 371.462 226.098H328.295C328.132 226.098 328 225.966 328 225.803V149.295C328 149.132 328.133 149 328.295 149Z" fill="white"/>
<path d="M283.51 91.59H309.219C309.584 91.59 309.88 91.8861 309.88 92.2517V92.254C309.88 92.6196 309.584 92.9157 309.219 92.9157H283.51C283.145 92.9157 282.849 92.6196 282.849 92.254V92.2517C282.849 91.8868 283.145 91.59 283.51 91.59Z" fill="#B6B6B8"/>
<path d="M350.443 233.196C351.924 233.196 353.124 231.996 353.124 230.515C353.124 229.035 351.924 227.835 350.443 227.835C348.963 227.835 347.763 229.035 347.763 230.515C347.763 231.996 348.963 233.196 350.443 233.196Z" fill="#B6B6B8"/>
<path d="M341.791 144.742H357.756C358.158 144.742 358.485 145.042 358.485 145.411V145.414C358.485 145.783 358.158 146.083 357.756 146.083H341.791C341.388 146.083 341.062 145.783 341.062 145.414V145.411C341.062 145.042 341.388 144.742 341.791 144.742Z" fill="#B6B6B8"/>
<path d="M361.687 174.467H359.961V173.233C359.961 172.552 359.366 172 358.633 172C357.899 172 357.305 172.552 357.305 173.233V174.467H351.262V173.233C351.262 172.552 350.667 172 349.934 172C349.2 172 348.605 172.552 348.605 173.233V174.467H342.629V173.233C342.629 172.552 342.034 172 341.301 172C340.567 172 339.973 172.552 339.973 173.233V174.467H338.312C335.383 174.467 333 176.679 333 179.4V198.638C333 201.358 335.383 203.571 338.312 203.571H349.405C350.138 203.571 350.733 203.019 350.733 202.338C350.733 201.657 350.138 201.105 349.405 201.105H338.312C336.848 201.105 335.656 199.998 335.656 198.638V179.4C335.656 178.04 336.848 176.933 338.312 176.933H339.973V178.166C339.973 178.847 340.567 179.4 341.301 179.4C342.034 179.4 342.629 178.847 342.629 178.166V176.933H348.605V178.166C348.605 178.847 349.2 179.4 349.934 179.4C350.667 179.4 351.262 178.847 351.262 178.166V176.933H357.305V178.166C357.305 178.847 357.899 179.4 358.633 179.4C359.366 179.4 359.961 178.847 359.961 178.166V176.933H361.687C363.152 176.933 364.344 178.04 364.344 179.4V187.317C364.344 187.998 364.938 188.55 365.672 188.55C366.405 188.55 367 187.998 367 187.317V179.4C367 176.679 364.617 174.467 361.687 174.467Z" fill="#7367F0"/>
<path d="M350.891 183.711C350.325 183.989 349.649 183.989 349.083 183.711C346.637 182.512 343.704 184.202 343.704 186.809C343.704 188.45 345.141 195.232 347.389 195.232C348.178 195.232 348.895 194.471 349.583 192.905C349.732 192.567 350.242 192.567 350.39 192.905C351.078 194.471 351.796 195.232 352.584 195.232C354.81 195.232 356.27 188.502 356.27 186.809C356.27 184.203 353.337 182.512 350.891 183.711ZM352.584 194.611C352.118 194.611 351.539 193.902 350.996 192.667C350.624 191.818 349.35 191.818 348.977 192.667C348.434 193.902 347.856 194.611 347.389 194.611C345.952 194.611 344.36 188.736 344.36 186.809C344.36 184.664 346.774 183.279 348.781 184.263C349.536 184.633 350.438 184.633 351.193 184.263C353.197 183.279 355.613 184.662 355.613 186.809C355.614 188.727 354.023 194.611 352.584 194.611Z" fill="#7367F0"/>
<path d="M348.019 185.367C346.831 185.367 345.865 186.281 345.865 187.405C345.865 187.576 346.012 187.715 346.193 187.715C346.374 187.715 346.521 187.576 346.521 187.405C346.521 186.623 347.193 185.987 348.019 185.987C348.2 185.987 348.347 185.848 348.347 185.677C348.347 185.505 348.2 185.367 348.019 185.367Z" fill="#7367F0"/>
</svg>
