<svg width="100" height="100" viewBox="0 0 100 100" fill="none" xmlns="http://www.w3.org/2000/svg">
<g clip-path="url(#clip0)">
<path d="M50 0C77.6143 0 100 22.3857 100 50C100 77.6143 77.6143 100 50 100C22.3857 100 0 77.6143 0 50C0 22.3857 22.3857 0 50 0Z" fill="#FFE356"/>
<path d="M42.4855 50.2379C46.8797 50.2379 51.2748 50.2379 55.6697 50.2379L56.7387 61.35L59.9637 63.718L79.1613 69.8028C79.1613 69.8028 81.6781 71.1883 82.418 75.0612C82.5713 75.8614 82.7076 82.2256 82.833 87.7078C74.0482 95.3621 62.5664 99.999 50 99.999C36.5145 99.999 24.2783 94.6586 15.2852 85.9795C15.3637 81.285 15.4801 76.409 15.7381 75.0614C16.2361 72.4506 18.9947 69.803 18.9947 69.803L38.3232 63.6344L41.4184 61.3502L42.4855 50.2379Z" fill="#C4996B"/>
<path d="M38.3223 63.6354L18.9938 69.804C18.9938 69.804 16.2352 72.4516 15.7371 75.0624C15.4791 76.41 15.3627 81.286 15.2842 85.9806C24.2773 94.6597 36.5145 100 49.999 100C62.5652 100 74.0482 95.3634 82.832 87.7089C82.7066 82.2276 82.5695 75.8634 82.417 75.0622C81.6773 71.1895 79.1604 69.8038 79.1604 69.8038L59.9627 63.719C56.782 73.0479 41.3543 72.6591 38.3223 63.6354Z" fill="#20D0C2"/>
<path d="M32.6156 33.3615C28.4804 32.6281 32.0058 44.9769 35.0251 43.1357L36.6462 47.8953C38.1068 52.183 41.7892 56.0863 44.592 59.1779C45.6863 60.3832 52.3871 60.3633 53.4705 59.224C56.5738 55.9601 60.2607 52.2941 61.6453 47.8719L63.1283 43.1367C66.1531 44.9752 69.6703 32.6299 65.5387 33.3625C65.8246 23.7506 59.0281 14.4246 49.0771 14.3822C39.1259 14.4246 32.3296 23.7506 32.6156 33.3625V33.3615Z" fill="#F0B97D"/>
<path d="M60.9461 16.2749C62.1152 16.1395 66.3334 19.9934 66.8395 24.4561C67.3455 28.9198 66.576 33.5204 66.576 33.5204C64.5111 33.9679 64.0781 38.6804 64.0781 38.6804L63.1832 38.7192L62.5455 35.5042C58.8479 33.1866 64.0043 24.0294 60.3057 23.2266C53.9746 28.4409 44.5828 30.3704 36.3883 29.0317C34.0879 29.3384 37.4338 32.245 36.4631 35.5891C35.7476 36.8376 36.1744 38.8079 36.1744 38.8079L35.1045 38.9415C35.1045 38.9415 34.4424 33.3475 32.3793 33.371C31.4258 30.7936 31.6215 29.1608 31.7965 26.8577C32.7662 14.0966 48.9797 6.08681 60.9453 16.2751H60.9461V16.2749Z" fill="#666666"/>
<path d="M62.3616 64.4788C58.22 76.4424 39.8784 76.3965 35.7811 64.4464L38.3223 63.6354C41.3544 72.6582 56.7821 73.0471 59.963 63.7194L62.3616 64.48V64.4788Z" fill="white"/>
<path d="M28.8745 95.327L29.0847 92.5468L29.7622 95.7321C29.4644 95.6003 29.1685 95.4649 28.8745 95.327ZM69.3391 96.1208C68.9647 96.2778 68.5895 96.4302 68.2106 96.5782L69.0684 92.5468L69.3382 96.121H69.3391V96.1208Z" fill="#15BDB1"/>
<path d="M62.4363 79.859H65.0253V80.6203H62.4363V79.859Z" fill="white"/>
<path d="M63.7308 79.859H65.0254V80.6203H63.7308V79.859Z" fill="#FF5B61"/>
</g>
<defs>
<clipPath id="clip0">
<rect width="100" height="100" fill="white"/>
</clipPath>
</defs>
</svg>
