<svg width="275" height="277" viewBox="0 0 275 277" fill="none" xmlns="http://www.w3.org/2000/svg">
<path d="M130 277C201.797 277 260 218.797 260 147C260 75.2031 201.797 17 130 17C58.2031 17 0 75.2031 0 147C0 218.797 58.2031 277 130 277Z" fill="#FAD24D"/>
<path d="M34.7732 12.0712H207.288V262.01H34.7732V12.0712Z" fill="#6B7F9E"/>
<path d="M43.0957 25.509H198.898V248.093H43.0957V25.509Z" fill="white"/>
<path d="M99.3042 17.6647H142.689C147.805 17.6647 152.034 21.8939 152.034 27.0102V38.2653H89.9586V27.0102C89.9586 21.8944 94.1878 17.6647 99.3042 17.6647Z" fill="#ECF0F1"/>
<path d="M152.034 33.832V38.1977H89.9586V33.832H152.034Z" fill="#C6CBD6"/>
<path d="M120.997 0.0655518C125.431 0.0655518 129.046 3.68116 129.046 8.18333V17.6653H112.88V8.18333C112.879 3.7494 116.495 0.0655518 120.997 0.0655518Z" fill="#C6CBD6"/>
<path d="M89.6858 72.3048H181.162V76.2611H89.6858V72.3048V72.3048ZM89.6858 206.074H181.162V210.03H89.6858V206.074V206.074ZM89.6858 179.333H181.162V183.29H89.6858V179.333V179.333ZM89.6858 152.593H181.162V156.549H89.6858V152.593V152.593ZM89.6858 125.853H181.162V129.809H89.6858V125.853V125.853ZM89.6858 99.1131H181.162V103.069H89.6858V99.1131V99.1131Z" fill="#C6CBD6"/>
<path d="M69.8357 66.7793C73.5195 66.7793 76.521 69.7807 76.521 73.4646C76.521 77.1484 73.5195 80.1499 69.8357 80.1499C66.1518 80.1499 63.1504 77.1484 63.1504 73.4646C63.1504 69.7807 66.1518 66.7793 69.8357 66.7793ZM69.8357 201.707C73.5195 201.707 76.521 204.709 76.521 208.393C76.521 212.076 73.5195 215.078 69.8357 215.078C66.1518 215.078 63.1504 212.076 63.1504 208.393C63.1504 204.709 66.1518 201.707 69.8357 201.707ZM69.8357 174.899C73.5195 174.899 76.521 177.9 76.521 181.584C76.521 185.268 73.5195 188.27 69.8357 188.27C66.1518 188.27 63.1504 185.268 63.1504 181.584C63.1504 177.9 66.1518 174.899 69.8357 174.899ZM69.8357 148.091C73.5195 148.091 76.521 151.092 76.521 154.776C76.521 158.46 73.5195 161.461 69.8357 161.461C66.1518 161.461 63.1504 158.46 63.1504 154.776C63.1504 151.092 66.1518 148.091 69.8357 148.091ZM69.8357 120.941C73.5195 120.941 76.521 123.943 76.521 127.627C76.521 131.31 73.5195 134.312 69.8357 134.312C66.1518 134.312 63.1504 131.31 63.1504 127.627C63.1504 123.943 66.1518 120.941 69.8357 120.941ZM69.8357 93.7923C73.5195 93.7923 76.521 96.7938 76.521 100.478C76.521 104.161 73.5195 107.163 69.8357 107.163C66.1518 107.163 63.1504 104.161 63.1504 100.478C63.1504 96.7938 66.1518 93.7923 69.8357 93.7923Z" fill="#83CF8F"/>
<path d="M203.741 118.554C227.174 118.554 246.17 99.5577 246.17 76.1244C246.17 52.6911 227.174 33.6947 203.741 33.6947C180.307 33.6947 161.311 52.6911 161.311 76.1244C161.311 99.5577 180.307 118.554 203.741 118.554Z" fill="#83CF8F"/>
<path d="M191.803 208.12L201.695 215.965L269.091 130.355L259.131 122.579L191.803 208.12Z" fill="white"/>
<path d="M240.44 166.714L242.418 164.258L232.527 156.482L230.549 158.937L240.44 166.714Z" fill="#C6CBD6"/>
<path d="M189.689 224.901L201.695 215.965L191.803 208.12L185.937 221.968L189.689 224.901Z" fill="#FF7069"/>
<path d="M189.689 224.901L201.694 215.965L199.58 214.259L188.938 224.355L189.689 224.901Z" fill="#F7635B"/>
<path d="M267.794 115.825L273.66 120.396C275.298 121.692 275.434 124.147 274.07 125.853L242.759 165.622L231.095 156.413L262.405 116.644C263.77 114.87 266.225 114.461 267.862 115.757L267.794 115.825Z" fill="#FF7069"/>
<path d="M272.979 125.103L268.886 130.288L258.859 142.976L241.6 164.873L241.737 165.009L242.624 165.691L259.404 144.408L273.934 125.922C275.298 124.148 275.094 121.693 273.525 120.465L273.252 120.26C274.138 121.693 274.07 123.671 272.91 125.172L272.979 125.103Z" fill="#F7635B"/>
<path d="M181.162 231.45L181.571 231.722L189.689 224.901L185.937 221.968L181.162 231.45Z" fill="#666666"/>
<path d="M258.108 122.033L271.683 132.88C272.092 133.289 272.16 133.766 271.751 134.176L253.538 157.301L253.06 157.642L250.741 158.46C249.581 158.801 248.967 157.301 250.263 156.686L252.31 156.004L269.704 133.903L256.812 123.602L258.04 122.102L258.108 122.033Z" fill="#6B7F9E"/>
<path d="M200.876 215.282L201.695 215.965L240.44 166.714L239.622 166.1L200.876 215.282Z" fill="#C6CBD6"/>
<path d="M227.139 85.8791H194.669L181.026 54.7051H172.567V50.8171H183.618L197.261 81.9911H227.207V85.8791H227.139ZM233.346 62.4817L234.915 58.5937H192.008L193.577 62.4817H233.346ZM198.215 74.2145L199.784 78.1026H227.07L228.639 74.2145H198.215ZM231.777 66.438H195.146L196.715 70.326H230.276L231.845 66.438H231.777ZM227.07 95.7018C227.07 98.908 224.478 101.568 221.204 101.568C217.998 101.568 215.337 98.9762 215.337 95.7018C215.337 92.4956 217.929 89.8354 221.204 89.8354C224.409 89.8354 227.07 92.428 227.07 95.7018ZM207.561 95.7018C207.561 98.908 204.969 101.568 201.694 101.568C198.488 101.568 195.828 98.9762 195.828 95.7018C195.828 92.4956 198.42 89.8354 201.694 89.8354C204.9 89.8354 207.561 92.428 207.561 95.7018Z" fill="white"/>
</svg>
