<svg width="60" height="60" viewBox="0 0 60 60" fill="none" xmlns="http://www.w3.org/2000/svg">
<path d="M49.2682 58.9728C36.4357 60.3424 23.5643 60.3424 10.7318 58.9728C5.61493 58.4267 1.57333 54.3851 1.02722 49.2677C-0.342407 36.4352 -0.342407 23.5643 1.02722 10.7318C1.57333 5.61493 5.61493 1.57333 10.7318 1.02722C23.5643 -0.342407 36.4352 -0.342407 49.2677 1.02722C54.3851 1.57333 58.4267 5.61493 58.9728 10.7318C60.3424 23.5643 60.3424 36.4352 58.9728 49.2677C58.4267 54.3851 54.3855 58.4267 49.2682 58.9728Z" fill="url(#paint0_linear)"/>
<path d="M55.7094 12.9021C55.2251 8.36153 51.6389 4.77495 47.0979 4.29018C35.7106 3.07527 24.2894 3.07527 12.9021 4.29018C8.36151 4.77495 4.77493 8.36153 4.29016 12.9021C3.07526 24.2894 3.07526 35.7106 4.29016 47.0975C4.77493 51.6385 8.36151 55.2251 12.9021 55.7094C24.2894 56.9248 35.7106 56.9248 47.0975 55.7094C51.6385 55.2251 55.2251 51.6385 55.7094 47.0975C56.9247 35.7106 56.9247 24.2894 55.7094 12.9021V12.9021Z" fill="url(#paint1_linear)"/>
<path d="M0.899048 48.024C0.940247 48.4387 0.982819 48.8535 1.02722 49.2682C1.57333 54.3851 5.61493 58.4267 10.7323 58.9728C23.5648 60.3424 36.4357 60.3424 49.2682 58.9728C54.3855 58.4267 58.4267 54.3851 58.9728 49.2682C59.0172 48.8535 59.0598 48.4387 59.1014 48.024H0.899048Z" fill="url(#paint2_linear)"/>
<path d="M40.3377 9.99252C35.11 9.99252 30.8725 14.2305 30.8725 19.4582V26.5283H25.7785V35.2821L30.8725 39.8447V59.9973C37.0074 59.9675 43.1419 59.6265 49.2682 58.9728C54.3855 58.4267 58.4267 54.3851 58.9728 49.2677C59.9918 39.7197 60.2522 30.1506 59.7546 20.5916L49.1556 9.99252H40.3377Z" fill="url(#paint3_linear)"/>
<path d="M30.8725 59.9973C34.3684 59.9803 37.8639 59.8618 41.358 59.642V35.2821H48.3151L49.1556 26.5283H41.358V20.9697C41.358 19.742 42.3532 18.7468 43.5809 18.7468H49.1556V9.99252H40.3377C35.11 9.99252 30.8725 14.2305 30.8725 19.4582V26.5283H25.7785V35.2821H30.8725V59.9973Z" fill="white"/>
<defs>
<linearGradient id="paint0_linear" x1="19.9212" y1="8.43589" x2="35.0969" y2="40.9049" gradientUnits="userSpaceOnUse">
<stop stop-color="#3457A0"/>
<stop offset="1" stop-color="#3B5998"/>
</linearGradient>
<linearGradient id="paint1_linear" x1="41.3817" y1="37.8203" x2="-11.0681" y2="1.78224" gradientUnits="userSpaceOnUse">
<stop stop-color="#3457A0" stop-opacity="0"/>
<stop offset="1" stop-color="#1F3F77"/>
</linearGradient>
<linearGradient id="paint2_linear" x1="30" y1="50.1414" x2="30" y2="58.2605" gradientUnits="userSpaceOnUse">
<stop stop-color="#3457A0" stop-opacity="0"/>
<stop offset="1" stop-color="#1F3F77"/>
</linearGradient>
<linearGradient id="paint3_linear" x1="68.8802" y1="49.5503" x2="27.2352" y2="28.5514" gradientUnits="userSpaceOnUse">
<stop stop-color="#3457A0" stop-opacity="0"/>
<stop offset="0.3251" stop-color="#2A4C8D" stop-opacity="0.32549"/>
<stop offset="0.7045" stop-color="#22427D" stop-opacity="0.705882"/>
<stop offset="1" stop-color="#1F3F77"/>
</linearGradient>
</defs>
</svg>
