<svg width="260" height="274" viewBox="0 0 260 274" fill="none" xmlns="http://www.w3.org/2000/svg">
<path d="M130 274C201.797 274 260 215.797 260 144C260 72.203 201.797 14 130 14C58.203 14 0 72.203 0 144C0 215.797 58.203 274 130 274Z" fill="#FAD24D"/>
<mask id="mask0" mask-type="alpha" maskUnits="userSpaceOnUse" x="0" y="14" width="260" height="260">
<path d="M130 274C201.797 274 260 215.797 260 144C260 72.203 201.797 14 130 14C58.203 14 0 72.203 0 144C0 215.797 58.203 274 130 274Z" fill="#FAD24D"/>
</mask>
<g mask="url(#mask0)">
<path d="M130.499 258.325C174.523 258.325 210.211 254.777 210.211 250.4C210.211 246.024 174.523 242.476 130.499 242.476C86.4752 242.476 50.787 246.024 50.787 250.4C50.787 254.777 86.4752 258.325 130.499 258.325Z" fill="#EFBC39"/>
</g>
<path d="M27.3258 58.7323H233.674C240.453 58.7323 246 64.2776 246 71.0582V198.17H15.0027V71.0582C15.0027 64.2798 20.5502 58.7323 27.3286 58.7323C27.3286 58.7323 27.3258 58.7323 27.3258 58.7323Z" fill="#666666"/>
<path d="M23.3672 189.803H237.627V71.0582C237.627 68.8985 235.831 67.1023 233.671 67.1023H27.3231C25.1634 67.1023 23.3672 68.8985 23.3672 71.0582C23.3672 71.0582 23.3672 189.803 23.3672 189.803Z" fill="#21D0C3"/>
<path d="M245.998 198.17V211.65C245.998 218.43 239.885 223.976 232.411 223.976H28.5872C21.1133 223.976 15 218.43 15 211.65V198.17H245.998Z" fill="#B6B6B8"/>
<path d="M55 1H177.928L205.568 28.6402V189H55V1Z" fill="white" stroke="#ECF0F1" stroke-width="2"/>
<path d="M178.342 0L206.568 28.226H178.342V0Z" fill="#D2D5D6"/>
<path d="M206.568 56.4523L178.342 28.2256H206.568V56.4523Z" fill="#ECF0F1"/>
<path d="M182.647 175.586L175.914 162.731L185.053 157.947L157.376 136.142L159.538 171.309L168.677 166.524L175.41 179.378L182.647 175.586Z" fill="#21D0C3"/>
<path d="M131.512 134.614C130.674 134.228 130.307 133.236 130.692 132.395C131.078 131.557 132.071 131.19 132.908 131.575L144.991 137.145C145.83 137.531 146.196 138.524 145.812 139.361C145.426 140.199 144.433 140.566 143.596 140.184L131.512 134.614ZM145.766 149.223C146.592 148.81 147.594 149.147 148.003 149.97C148.416 150.793 148.082 151.798 147.257 152.207L130.401 160.623C129.578 161.036 128.573 160.702 128.163 159.876C127.751 159.053 128.087 158.048 128.91 157.639L145.766 149.223ZM192.369 127.665C193.192 127.252 194.197 127.589 194.607 128.412C195.02 129.238 194.683 130.24 193.86 130.649L177.004 139.065C176.181 139.478 175.176 139.141 174.766 138.318C174.353 137.492 174.69 136.49 175.513 136.081L192.369 127.665ZM169.963 114.962C170.142 114.058 171.023 113.471 171.925 113.651C172.829 113.83 173.419 114.71 173.236 115.615L170.634 128.667C170.455 129.571 169.575 130.157 168.67 129.978C167.766 129.799 167.179 128.918 167.359 128.017L169.961 114.965L169.963 114.962ZM145.517 112.797C145.171 111.941 145.587 110.966 146.44 110.623C147.296 110.277 148.272 110.69 148.615 111.546L155.777 129.34C156.123 130.192 155.71 131.168 154.854 131.514C154.001 131.86 153.026 131.447 152.68 130.591L145.517 112.797Z" fill="#FAD24D"/>
<path d="M65.8218 41.7029H182.433V44.9054H65.8218V41.7029ZM65.8218 76.2017H182.433V79.4075H65.8218V76.2017ZM65.8218 82.1426H182.433V85.3451H65.8218V82.1426ZM65.8218 88.0848H182.433V91.2873H65.8218V88.0848ZM65.8218 94.0263H182.438V97.2288H65.8218V94.0263ZM65.8218 47.6451H182.433V50.8475H65.8218V47.6451ZM65.8218 53.5859H182.433V56.7884H65.8218V53.5859ZM65.8218 59.5275H182.438V62.7299H65.8218V59.5275ZM65.8218 65.4697H155.145V68.6721H65.8218V65.4697ZM65.8218 99.9672H155.145V103.17H65.8218V99.9672Z" fill="#DCE3DB"/>
<path d="M130.499 214.634C132.879 214.634 134.809 212.705 134.809 210.324C134.809 207.944 132.879 206.014 130.499 206.014C128.119 206.014 126.189 207.944 126.189 210.324C126.189 212.705 128.119 214.634 130.499 214.634Z" fill="#919191"/>
<path d="M157.558 243.674L177.465 250.052H83.5331L99.5931 243.674V223.979H157.558V243.674Z" fill="#C2C2C4"/>
<path d="M157.558 243.674L99.5931 223.979H157.558V243.674Z" fill="#B0B0B0"/>
<path d="M99.5931 243.674H157.558L177.465 250.052V252.8H130.499H83.5303V250.052L99.5903 243.674H99.5931Z" fill="#ECF0F1"/>
</svg>
