<svg width="60" height="60" viewBox="0 0 60 60" fill="none" xmlns="http://www.w3.org/2000/svg">
<path d="M58.9728 10.7318C58.4267 5.61493 54.3855 1.57288 49.2682 1.02722C36.4352 -0.342407 23.5648 -0.342407 10.7323 1.02722C5.61493 1.57333 1.57333 5.61493 1.02722 10.7318C-0.342407 23.5643 -0.342407 36.4352 1.02722 49.2677C1.57333 54.3851 5.61493 58.4267 10.7318 58.9728C23.5643 60.3424 36.4352 60.3424 49.2682 58.9728C54.3855 58.4267 58.4267 54.3851 58.9728 49.2677C60.3424 36.4352 60.3424 23.5648 58.9728 10.7318V10.7318Z" fill="url(#paint0_radial)"/>
<path d="M55.7094 12.9021C55.2251 8.36153 51.6389 4.77495 47.0979 4.29018C35.7106 3.07527 24.2894 3.07527 12.9021 4.29018C8.36151 4.77495 4.77493 8.36153 4.29016 12.9021C3.07526 24.2894 3.07526 35.7106 4.29016 47.0975C4.77493 51.6385 8.36151 55.2251 12.9021 55.7094C24.2894 56.9248 35.7106 56.9248 47.0975 55.7094C51.6385 55.2251 55.2251 51.6385 55.7094 47.0975C56.9247 35.7106 56.9247 24.2894 55.7094 12.9021V12.9021Z" fill="url(#paint1_linear)"/>
<path d="M0.899048 48.024C0.940247 48.4387 0.982819 48.8535 1.02722 49.2682C1.57333 54.3851 5.61493 58.4267 10.7323 58.9728C23.5648 60.3424 36.4357 60.3424 49.2682 58.9728C54.3855 58.4267 58.4267 54.3851 58.9728 49.2682C59.0172 48.8535 59.0598 48.4387 59.1014 48.024H0.899048Z" fill="url(#paint2_linear)"/>
<path d="M58.9728 49.2677C59.7089 42.3724 60.0485 35.4662 59.9936 28.5608L46.279 14.8462C44.5656 12.8902 42.063 11.6693 39.1223 11.5636C33.0748 11.3457 27.0081 11.3567 20.9596 11.5645C15.9361 11.7375 12.4232 15.114 11.5224 20.0766C11.3635 20.9528 11.2683 21.8404 11.1433 22.7229V37.2716C11.2125 37.7431 11.3141 38.2123 11.3457 38.6865C11.5471 41.705 12.7876 44.2905 14.7739 46.0396L28.7302 59.9954C35.5792 60.0435 42.4287 59.7029 49.2682 58.9728C54.3855 58.4267 58.4267 54.3851 58.9728 49.2677V49.2677Z" fill="url(#paint3_linear)"/>
<path d="M58.9728 49.2682C58.4271 54.3846 54.3846 58.4271 49.2682 58.9728C42.4297 59.7025 35.5788 60.0435 28.7306 59.9954L14.7954 46.0602C16.4108 47.4742 18.5165 48.3353 20.9601 48.4273C27.0071 48.6543 33.0753 48.6484 39.1223 48.4305C44.5917 48.2327 48.5495 44.1847 48.7202 38.7154C48.9024 32.9082 48.9024 27.0859 48.7202 21.2787C48.6424 18.7555 47.7567 16.5353 46.2881 14.8553L59.994 28.5612C60.0481 35.4657 59.7084 42.3729 58.9728 49.2682Z" fill="url(#paint4_linear)"/>
<path d="M37.0798 23.503C35.3229 21.59 32.802 20.3897 30 20.3897C24.6927 20.3897 20.3897 24.6927 20.3897 30C20.3897 32.802 21.59 35.3229 23.503 37.0798L45.7379 59.3147C46.9148 59.2122 48.0917 59.0982 49.2677 58.9728C54.3851 58.4267 58.4267 54.3851 58.9728 49.2677C59.0982 48.0917 59.2122 46.9148 59.3147 45.7379L37.0798 23.503Z" fill="url(#paint5_linear)"/>
<path d="M59.8837 36.4632L41.9888 18.5687C41.5714 18.0208 40.9135 17.6651 40.1715 17.6651C38.909 17.6651 37.885 18.6887 37.885 19.9516C37.885 20.6937 38.2407 21.3515 38.7886 21.769L59.5638 42.5446C59.7047 40.518 59.8114 38.4906 59.8837 36.4632V36.4632Z" fill="url(#paint6_linear)"/>
<path d="M11.1433 22.7229C11.2683 21.8404 11.3635 20.9528 11.5224 20.0766C12.4228 15.114 15.9361 11.7375 20.9596 11.5645C27.0081 11.3567 33.0748 11.3457 39.1223 11.5636C44.5898 11.7604 48.5495 15.8089 48.7202 21.2782C48.902 27.0859 48.902 32.9077 48.7202 38.7154C48.5495 44.1847 44.5912 48.2327 39.1228 48.43C33.0753 48.6484 27.0071 48.6539 20.9601 48.4268C15.4916 48.2213 11.7114 44.1637 11.3457 38.6861C11.3141 38.2123 11.2125 37.7426 11.1433 37.2711C11.1433 32.4216 11.1433 27.572 11.1433 22.7229V22.7229ZM30.005 45.1886C32.7727 45.1886 35.5431 45.2715 38.307 45.1694C42.6407 45.0087 45.3062 42.4223 45.4074 38.0928C45.5328 32.6981 45.5328 27.296 45.4074 21.9008C45.3062 17.5722 42.6389 14.9254 38.307 14.8334C32.8088 14.7171 27.3047 14.718 21.8065 14.8334C17.5076 14.9236 14.8343 17.5168 14.7176 21.7978C14.5692 27.2608 14.5692 32.7333 14.7176 38.1963C14.8343 42.4768 17.5076 45.0101 21.8069 45.1694C24.5361 45.271 27.2722 45.1886 30.005 45.1886V45.1886Z" fill="url(#paint7_linear)"/>
<path d="M11.1433 22.7229C11.2683 21.8404 11.3635 20.9528 11.5224 20.0766C12.4228 15.114 15.9361 11.7375 20.9596 11.5645C27.0081 11.3567 33.0748 11.3457 39.1223 11.5636C44.5898 11.7604 48.5495 15.8089 48.7202 21.2782C48.902 27.0859 48.902 32.9077 48.7202 38.7154C48.5495 44.1847 44.5912 48.2327 39.1228 48.43C33.0753 48.6484 27.0071 48.6539 20.9601 48.4268C15.4916 48.2213 11.7114 44.1637 11.3457 38.6861C11.3141 38.2123 11.2125 37.7426 11.1433 37.2711C11.1433 32.4216 11.1433 27.572 11.1433 22.7229V22.7229ZM30.005 45.1886C32.7727 45.1886 35.5431 45.2715 38.307 45.1694C42.6407 45.0087 45.3062 42.4223 45.4074 38.0928C45.5328 32.6981 45.5328 27.296 45.4074 21.9008C45.3062 17.5722 42.6389 14.9254 38.307 14.8334C32.8088 14.7171 27.3047 14.718 21.8065 14.8334C17.5076 14.9236 14.8343 17.5168 14.7176 21.7978C14.5692 27.2608 14.5692 32.7333 14.7176 38.1963C14.8343 42.4768 17.5076 45.0101 21.8069 45.1694C24.5361 45.271 27.2722 45.1886 30.005 45.1886V45.1886Z" fill="white"/>
<path d="M30 20.3902C24.6927 20.3902 20.3897 24.6927 20.3897 30C20.3897 35.3078 24.6927 39.6103 30 39.6103C35.3078 39.6103 39.6103 35.3078 39.6103 30C39.6103 24.6927 35.3078 20.3902 30 20.3902ZM30 36.3016C26.5196 36.3016 23.6984 33.4804 23.6984 30C23.6984 26.5196 26.5196 23.6984 30 23.6984C33.4804 23.6984 36.3016 26.5196 36.3016 30C36.3016 33.4804 33.4804 36.3016 30 36.3016Z" fill="white"/>
<path d="M42.4576 19.9516C42.4576 21.2141 41.434 22.2377 40.1715 22.2377C38.909 22.2377 37.885 21.2141 37.885 19.9516C37.885 18.6887 38.909 17.6651 40.1715 17.6651C41.434 17.6651 42.4576 18.6887 42.4576 19.9516Z" fill="white"/>
<defs>
<radialGradient id="paint0_radial" cx="0" cy="0" r="1" gradientUnits="userSpaceOnUse" gradientTransform="translate(12.2997 52.4352) scale(66.1694)">
<stop stop-color="#FAE100"/>
<stop offset="0.0544" stop-color="#FADC04"/>
<stop offset="0.1167" stop-color="#FBCE0E"/>
<stop offset="0.1829" stop-color="#FCB720"/>
<stop offset="0.2514" stop-color="#FE9838"/>
<stop offset="0.3054" stop-color="#FF7950"/>
<stop offset="0.4922" stop-color="#FF1C74"/>
<stop offset="1" stop-color="#6C1CD1"/>
</radialGradient>
<linearGradient id="paint1_linear" x1="23.0124" y1="26.0695" x2="-78.6347" y2="-31.107" gradientUnits="userSpaceOnUse">
<stop stop-color="#A1B5D8" stop-opacity="0"/>
<stop offset="0.3094" stop-color="#90A2BD" stop-opacity="0.309804"/>
<stop offset="0.7554" stop-color="#7C8B9C" stop-opacity="0.756863"/>
<stop offset="1" stop-color="#748290"/>
</linearGradient>
<linearGradient id="paint2_linear" x1="30" y1="52.9648" x2="30" y2="62.3173" gradientUnits="userSpaceOnUse">
<stop stop-color="#FAE100" stop-opacity="0"/>
<stop offset="0.3068" stop-color="#FCA800" stop-opacity="0.305882"/>
<stop offset="0.6275" stop-color="#FE7300" stop-opacity="0.627451"/>
<stop offset="0.8685" stop-color="#FF5200" stop-opacity="0.866667"/>
<stop offset="1" stop-color="#FF4500"/>
</linearGradient>
<linearGradient id="paint3_linear" x1="26.5866" y1="26.5017" x2="11.7376" y2="11.6527" gradientUnits="userSpaceOnUse">
<stop stop-color="#833AB4" stop-opacity="0"/>
<stop offset="1" stop-color="#833AB4"/>
</linearGradient>
<linearGradient id="paint4_linear" x1="41.121" y1="54.8774" x2="33.7096" y2="19.938" gradientUnits="userSpaceOnUse">
<stop stop-color="#833AB4" stop-opacity="0"/>
<stop offset="1" stop-color="#833AB4"/>
</linearGradient>
<linearGradient id="paint5_linear" x1="43.9412" y1="43.9412" x2="14.1728" y2="14.1728" gradientUnits="userSpaceOnUse">
<stop stop-color="#833AB4" stop-opacity="0"/>
<stop offset="1" stop-color="#833AB4"/>
</linearGradient>
<linearGradient id="paint6_linear" x1="46.1492" y1="25.9293" x2="36.3054" y2="16.0854" gradientUnits="userSpaceOnUse">
<stop stop-color="#833AB4" stop-opacity="0"/>
<stop offset="1" stop-color="#833AB4"/>
</linearGradient>
<linearGradient id="paint7_linear" x1="41.9131" y1="18.1699" x2="17.6417" y2="42.4412" gradientUnits="userSpaceOnUse">
<stop stop-color="#833AB4"/>
<stop offset="0.0922" stop-color="#9C3495"/>
<stop offset="0.2927" stop-color="#DC2546"/>
<stop offset="0.392" stop-color="#FD1D1D"/>
<stop offset="0.5589" stop-color="#FC6831"/>
<stop offset="0.6887" stop-color="#FC9B40"/>
<stop offset="0.7521" stop-color="#FCAF45"/>
<stop offset="0.7806" stop-color="#FDB750"/>
<stop offset="0.8656" stop-color="#FECB6A"/>
<stop offset="0.9415" stop-color="#FFD87A"/>
<stop offset="1" stop-color="#FFDC80"/>
</linearGradient>
</defs>
</svg>
