<svg width="100" height="100" viewBox="0 0 100 100" fill="none" xmlns="http://www.w3.org/2000/svg">
<path d="M50 99.961C77.6035 99.961 99.9805 77.5839 99.9805 49.9805C99.9805 22.377 77.6035 0 50 0C22.3965 0 0.0195312 22.377 0.0195312 49.9805C0.0195312 77.5839 22.3965 99.961 50 99.961Z" fill="#FFE356"/>
<path d="M31.8431 59.4299C34.5374 54.6271 38.8326 49.0433 34.4984 40.5701C25.8689 9.56655 57.5362 5.19326 61.9876 17.337C69.2113 20.2265 69.0552 36.0406 65.3066 44.3576C65.1504 47.7548 62.4562 50.6052 68.5475 59.3908C52.421 62.0851 43.0497 61.187 31.8431 59.4299Z" fill="#596366"/>
<path d="M45 52C44.7019 55.5162 42.3529 58.5884 39.5 59.5C38.0523 60.2814 31.2471 62.635 27.5 65.5C24.2639 67.9743 24.9477 71.322 23.5 77C26.5232 78.4065 23.2594 81.7545 26.7084 82.7703L28.2839 72.4041C28.2839 72.4041 29.4335 77.5351 30.4981 78.2384C31.0942 78.6551 31.2645 80.9732 31.3071 83.2391L35.8206 84.8279C40.4194 85.6093 45.231 86 50.2555 86C54.9819 86 59.5381 85.6354 63.8813 84.9582L68.7355 83.2391C68.7781 80.9992 68.6929 78.8114 69.5445 78.2384C70.3961 77.6653 71.7587 72.4041 71.7587 72.4041L73.0787 82.9526C76.6129 81.9629 74.3561 82.9065 77.4219 81.5C76.3574 76.0304 74.3987 72.6098 71.7587 69.875C68.5226 66.5411 60.7794 63.3741 61.5 59.5C58.7323 58.5624 56.4516 53.5162 56.1535 50C56.1535 50 53.0232 54.9534 50.4684 54.6669C47.9135 54.3544 45.9755 52 45.9755 52H45Z" fill="#C3996B"/>
<path d="M43.5181 56.3063C42.6981 57.4387 41.6439 58.1806 40.3943 58.8054C39.0667 59.9768 29.6954 60.6796 26.2592 64.9748C23.2917 68.6843 20.9488 81.1795 19.6212 89.6918C22.5107 91.9175 25.6735 93.8308 28.9926 95.3927L29.8906 79.6176C29.8906 79.6176 31.1792 87.5832 31.9211 88.3642C32.4678 88.9499 32.5459 93.206 32.5849 96.8765C38.0125 98.9069 43.8696 100 50 100C55.9742 100 61.7141 98.946 67.0246 97.0327C67.0636 93.3622 67.1417 88.9499 67.6884 88.3642C68.4303 87.5832 69.7188 79.6176 69.7188 79.6176L70.7731 95.5098C74.2483 93.9089 77.4892 91.9565 80.4959 89.6527C79.3635 81.5309 77.294 69.5824 74.9121 65.5215C71.9445 60.5234 62.1827 60.0158 60.9722 59.0006C59.8789 58.3758 58.9418 57.712 58.1608 56.7359L51.1323 70.1681L43.4791 56.3063H43.5181Z" fill="#E4E7ED"/>
<path d="M45.002 52.1669C46.3686 52.9869 48.6724 55.564 50.859 55.6031C53.0066 55.6421 56.0523 52.4402 56.4818 52.2059C56.4428 51.8936 56.4037 51.5812 56.4037 51.2688L56.3647 51.3078C56.2476 51.3859 52.5381 54.3145 50.2343 53.8459C47.9305 53.4164 45.3534 51.425 45.1972 51.3078L45.1581 51.2688C45.1191 51.5812 45.1191 51.8936 45.08 52.1669H45.002Z" fill="#F0B97D"/>
<path d="M39.0277 42.093C41.3706 47.0911 42.2296 49.0434 45.1191 51.3082C45.1191 51.3082 47.8133 53.3777 50.1562 53.8462C52.499 54.3148 56.2866 51.3082 56.2866 51.3082C59.1761 49.0434 60.0742 47.0911 62.378 42.093C62.9637 42.4054 63.5494 42.7959 64.0179 42.2882C64.4865 41.7416 66.7122 34.8302 66.2827 33.8931C65.8922 32.956 65.0722 33.6198 64.916 33.9712C64.7989 34.1274 64.6817 34.8302 64.5256 34.8302C64.3694 34.8302 64.3303 34.5178 64.096 33.854C63.4322 31.9407 62.0265 29.9884 61.5189 23.6237C50.9371 34.1274 41.0191 29.3246 37.583 30.0274C36.6849 30.2226 36.6068 32.4093 36.6849 33.6978C36.6849 33.854 36.9192 34.4397 36.8411 34.4788C36.7239 34.4788 36.3725 33.8931 36.2944 33.854C32.8583 31.6283 37.2706 42.1711 37.3487 42.2882C37.8173 42.8349 38.403 42.4054 38.9887 42.093H39.0277Z" fill="#FFBA60"/>
<path d="M32.3507 96.7592C32.3116 93.2059 32.2335 89.1059 32.1945 88.7545C29.6174 85.9431 29.6564 79.5784 29.6564 79.5784C29.6564 79.5784 32.624 76.1422 34.9278 71.808C38.5982 71.3784 49.8829 71.7299 49.8829 71.7299C49.8829 71.7299 61.1285 71.3784 64.838 71.808C65.697 74.6975 70.1093 79.5784 70.1093 79.5784C70.2265 80.5155 69.3284 87.6221 67.6884 88.4812C67.6103 88.7545 67.5322 93.1668 67.4541 96.8763C62.0656 98.8677 56.2085 99.9611 50.1172 99.9611C43.9087 99.9611 37.9344 98.8287 32.4288 96.7592H32.3507Z" fill="#5D718F"/>
<path d="M39.5743 59.1174L38.2077 77.6648C38.1686 78.2505 37.4268 78.9924 35.5525 78.9533C33.6782 78.8752 33.9516 77.3134 33.9516 77.3134L35.7477 60.2888L39.6134 59.1564L39.5743 59.1174Z" fill="#6B7F9E"/>
<path d="M62.417 59.3908L62.3389 77.4306C62.3389 78.0163 63.1198 78.9534 65.0331 78.8754C66.9074 78.7973 66.9855 77.1182 66.9855 77.1182L66.3607 60.406L62.417 59.3517V59.3908Z" fill="#6B7F9E"/>
<path d="M35.9822 75.4782C36.646 75.4782 37.1927 76.0249 37.1927 76.6887C37.1927 77.3525 36.646 77.8991 35.9822 77.8991C35.3184 77.8991 34.7717 77.3525 34.7717 76.6887C34.7717 76.0249 35.3184 75.4782 35.9822 75.4782Z" fill="#FFE356"/>
<path d="M64.6039 75.4782C65.2677 75.4782 65.8144 76.0249 65.8144 76.6887C65.8144 77.3525 65.2677 77.8991 64.6039 77.8991C63.9401 77.8991 63.3934 77.3525 63.3934 76.6887C63.3934 76.0249 63.9401 75.4782 64.6039 75.4782Z" fill="#FFE356"/>
<path d="M43.4401 56.1892L47.8915 64.272C47.8915 64.272 43.5182 63.8425 42.6592 65.3653C41.8001 66.8882 39.8478 68.7234 39.8478 68.7234L42.3858 57.4778L43.4401 56.1892Z" fill="white"/>
<path d="M58.2781 56.3845L54.1781 64.311C54.1781 64.311 58.3952 63.8034 59.2542 65.3263C60.1133 66.8491 61.9485 68.1767 61.9485 68.1767L59.5666 57.4778L58.2781 56.3845Z" fill="white"/>
<path d="M67.5713 22.9209V35.377H65.2675V22.9209C65.2675 17.4933 61.4018 14.0181 56.4819 12.4953C54.5295 11.8705 52.3819 11.5972 50.2343 11.5972C48.0867 11.5972 45.9391 11.9096 43.9868 12.4953C39.0668 14.0181 35.2011 17.4933 35.2011 22.9209V35.377H32.8973V22.9209C32.8973 16.439 37.4268 12.3 43.2449 10.4648C45.4706 9.76196 47.8524 9.44958 50.2343 9.44958C52.6162 9.44958 54.9981 9.80101 57.2238 10.4648C63.0418 12.261 67.5713 16.4 67.5713 22.9209Z" fill="white"/>
<path d="M35.6306 32.6827H34.5372C33.522 32.6827 32.663 33.5417 32.663 34.5569V41.8588C32.663 42.874 33.522 43.733 34.5372 43.733H35.6306C36.6458 43.733 37.5048 42.874 37.5048 41.8588V34.5569C37.5048 33.5417 36.6458 32.6827 35.6306 32.6827Z" fill="#6B7F9E"/>
<path d="M34.7716 32.0578H32.5069C32.1945 32.0578 31.9602 32.3311 31.9602 32.6045V43.772C31.9602 44.0843 32.2335 44.3186 32.5069 44.3186H34.7716C35.084 44.3186 35.3183 44.0453 35.3183 43.772V32.6045C35.3183 32.2921 35.0449 32.0578 34.7716 32.0578Z" fill="#FFE356"/>
<path d="M64.9552 32.6827H66.0485C67.0637 32.6827 67.9228 33.5417 67.9228 34.5569V41.8588C67.9228 42.874 67.0637 43.733 66.0485 43.733H64.9552C63.94 43.733 63.0809 42.874 63.0809 41.8588V34.5569C63.0809 33.5417 63.94 32.6827 64.9552 32.6827Z" fill="#6B7F9E"/>
<path d="M65.8141 32.0578H68.0789C68.3912 32.0578 68.6255 32.3311 68.6255 32.6045V43.772C68.6255 44.0843 68.3522 44.3186 68.0789 44.3186H65.8141C65.5017 44.3186 65.2675 44.0453 65.2675 43.772V32.6045C65.2675 32.2921 65.5408 32.0578 65.8141 32.0578Z" fill="#FFE356"/>
<path d="M47.1886 53.651C45.5096 53.612 43.8696 53.3777 42.3467 52.9091C38.2468 51.6205 35.0449 48.7311 35.0449 44.2406V42.2492C35.084 41.5073 33.4049 41.1168 33.1316 42.2492V44.2406C33.1316 49.6291 36.9192 53.1043 41.761 54.5881C43.4791 55.1348 45.3534 55.4081 47.2276 55.4472V53.6901L47.1886 53.651Z" fill="white"/>
<path d="M47.2667 51.6984H51.9524C52.499 51.6984 52.9676 52.167 52.9676 52.7137V55.8765C52.9676 56.4231 52.499 56.8917 51.9524 56.8917H47.2667C46.72 56.8917 46.2515 56.4231 46.2515 55.8765V52.7137C46.2515 52.167 46.72 51.6984 47.2667 51.6984Z" fill="#596366"/>
<path d="M46.4858 52.4794H52.7333C52.8505 52.4794 52.9676 52.5966 52.9676 52.7137V55.8375C52.9676 55.9546 52.8505 56.0718 52.7333 56.0718H46.4858C46.3686 56.0718 46.2515 55.9546 46.2515 55.8375V52.7137C46.2515 52.5966 46.3686 52.4794 46.4858 52.4794Z" fill="#6C7678"/>
</svg>
