<svg width="100" height="100" viewBox="0 0 100 100" fill="none" xmlns="http://www.w3.org/2000/svg">
<path d="M49.9999 99.9998C77.6141 99.9998 99.9998 77.6141 99.9998 49.9999C99.9998 22.3857 77.6141 0 49.9999 0C22.3857 0 0 22.3857 0 49.9999C0 77.6141 22.3857 99.9998 49.9999 99.9998Z" fill="#F0DB67"/>
<path d="M40.751 44.9493V12.2953C40.751 11.254 41.6038 10.4123 42.634 10.4123H61.3756C62.4169 10.4123 63.2586 11.2651 63.2586 12.2953V44.9493C63.2586 45.9906 62.4058 46.8323 61.3756 46.8323H42.634C41.5929 46.8323 40.751 45.9792 40.751 44.9493Z" fill="white"/>
<path d="M43.4979 10.4123H48.704V46.8323H43.4979V10.4123Z" fill="#6C7678"/>
<path d="M48.704 33.4073V46.8322H46.5441C45.9348 45.3589 45.5803 43.5757 45.5803 41.6593C45.5805 38.0152 46.8542 34.8694 48.704 33.4073Z" fill="#596366"/>
<path d="M50.8638 44.9711V20.1151H53.3338V44.9711H50.8638ZM50.8638 12.2728V16.4044H53.3338V12.2728H50.8638Z" fill="#FFE356"/>
<path d="M54.7628 44.5506V40.8067C54.7628 40.5741 54.9511 40.3858 55.1837 40.3858H58.8612C59.0938 40.3858 59.2821 40.5741 59.2821 40.8067V44.5506C59.2821 44.7832 59.0938 44.9714 58.8612 44.9714H55.1837C54.9513 44.9714 54.7628 44.7832 54.7628 44.5506Z" fill="#FFE356"/>
<path d="M55.7153 38.8902V27.1933H56.4242V38.8902H55.7153ZM57.4767 38.8902V27.1933H58.1856V38.8902H57.4767Z" fill="#6C7678"/>
<path d="M46.7546 39.9756C46.6991 43.5977 47.7625 45.2924 47.7625 46.4553C47.7625 47.6183 45.9902 51.2626 45.9902 51.2626L40.8839 45.824L40.7509 25.587C40.7509 25.587 33.4957 34.7916 32.6872 37.2175C31.8787 39.6432 32.1222 56.38 32.1222 56.38C32.1222 56.38 40.4297 69.5502 43.9742 74.4128V80.9702H58.3074L57.8533 71.1674C57.8533 71.1674 60.4896 58.4071 59.5701 54.0541C58.6618 49.7011 54.6078 44.6278 54.6078 44.6278C54.6078 44.6278 54.3863 36.3867 53.1345 34.825C50.31 31.2693 46.7987 36.3758 46.7544 39.9867V39.9756H46.7546Z" fill="#C3996B"/>
<path d="M40.9835 76.5838H62.4612V82.255H40.9835V76.5838Z" fill="white"/>
<path d="M38.735 81.391H64.7097L65.0087 97.6959C60.2682 99.1912 55.2283 99.9888 49.989 99.9888C45.4807 99.9888 41.1056 99.3906 36.9518 98.272L38.724 81.3912H38.735V81.391Z" fill="#5D718F"/>
<path d="M50.9414 34.9689L51.0965 38.1369L53.7882 38.0705L53.1679 35.3567C53.1679 35.3567 52.2596 34.2822 50.9416 34.9802V34.9689H50.9414Z" fill="#FEFEFE"/>
<path d="M42.0469 47.0426H41.5594C40.4961 47.0426 39.621 46.1675 39.621 45.1041V27.0382C40.3078 26.1522 40.7507 25.576 40.7507 25.576L40.8837 45.8131L42.0357 47.0426H42.0469Z" fill="#F0B97D"/>
</svg>
