<svg width="100" height="100" viewBox="0 0 100 100" fill="none" xmlns="http://www.w3.org/2000/svg">
<path d="M50 100C77.6142 100 100 77.6142 100 50C100 22.3858 77.6142 0 50 0C22.3858 0 0 22.3858 0 50C0 77.6142 22.3858 100 50 100Z" fill="#F0DB67"/>
<path d="M50 91.6667C62.8867 91.6667 73.3334 89.8012 73.3334 87.5C73.3334 85.1988 62.8867 83.3333 50 83.3333C37.1134 83.3333 26.6667 85.1988 26.6667 87.5C26.6667 89.8012 37.1134 91.6667 50 91.6667Z" fill="#FFBA60"/>
<path d="M50.5387 27.8739V27.8385L50.0342 27.843C48.8927 27.8532 47.3019 27.5885 45.4538 27.241C45.1108 27.1765 44.7598 27.1094 44.4025 27.041C42.857 26.7453 41.1954 26.4274 39.566 26.2074C37.5622 25.9368 35.5639 25.8075 33.8405 26.0592C32.1166 26.311 30.5958 26.9556 29.6539 28.298L29.6539 28.298C27.7503 31.011 26.9915 35.2507 27.0023 39.2404C27.0077 41.2472 27.2078 43.2172 27.5679 44.9379C27.9262 46.6504 28.4502 48.1507 29.1243 49.1941C29.5026 49.7797 29.8654 50.335 30.2091 50.861C31.0121 52.09 31.7107 53.1593 32.2585 54.0826C32.6483 54.7397 32.9515 55.306 33.1562 55.7881C33.3638 56.2771 33.4527 56.6397 33.4527 56.8997C33.4527 57.2296 33.4343 58.7304 33.4081 60.8681C33.3775 63.3679 33.3362 66.7386 33.3012 70.1266C33.2688 73.2664 33.2417 76.4186 33.2336 78.8986C33.2255 81.3583 33.2355 83.1995 33.2819 83.6809C33.3717 84.6154 33.5762 85.4526 33.882 86.073C34.1705 86.6583 34.6426 87.2233 35.3355 87.2233C35.4931 87.2233 35.6296 87.1713 35.7305 87.1193C35.835 87.0653 35.9336 86.9945 36.024 86.9192C36.2045 86.7687 36.395 86.5643 36.5876 86.3302C36.9752 85.8591 37.4176 85.2107 37.8657 84.4778C38.7628 83.0108 39.7153 81.152 40.3327 79.5753C40.9315 78.0466 42.8305 73.6716 44.9226 69.6831C45.9694 67.6874 47.0558 65.8053 48.0449 64.4281C48.5405 63.738 48.9992 63.1923 49.4044 62.8244C49.8304 62.4374 50.1117 62.3261 50.2592 62.3261C50.7573 62.3261 51.372 62.616 52.098 63.2679C52.8129 63.91 53.5712 64.8451 54.3497 65.9964C55.9052 68.2966 57.4886 71.3796 58.9256 74.4848C60.3607 77.5858 61.6407 80.6889 62.5924 83.0221C62.6913 83.2647 62.7868 83.4992 62.8786 83.7247C63.2273 84.5809 63.5228 85.3066 63.7523 85.8487C63.8969 86.1901 64.0193 86.468 64.1146 86.6632C64.1612 86.7588 64.208 86.8482 64.2525 86.9188C64.2735 86.952 64.3052 86.9994 64.3465 87.0442C64.3669 87.0664 64.4025 87.1021 64.4526 87.1354C64.4977 87.1653 64.5993 87.2235 64.7415 87.2235C65.4342 87.2235 65.9063 86.6584 66.1948 86.0732C66.5006 85.4529 66.7052 84.6157 66.795 83.6811C66.8413 83.2 66.8512 81.3587 66.8431 78.8987C66.835 76.4187 66.808 73.2665 66.7755 70.1267C66.7406 66.7402 66.6994 63.371 66.6688 60.8716C66.6427 58.7321 66.6243 57.2299 66.6243 56.8999C66.6243 56.64 66.7131 56.2775 66.9208 55.7884C67.1255 55.3064 67.4287 54.74 67.8185 54.0829C68.3665 53.1593 69.0652 52.0898 69.8683 50.8606C70.2119 50.3348 70.5746 49.7797 70.9527 49.1943C71.6267 48.1509 72.1507 46.6506 72.5091 44.9381C72.8692 43.2174 73.0692 41.2474 73.0747 39.2406C73.0854 35.2509 72.3266 31.0112 70.4231 28.2982L70.0138 28.5854L70.4231 28.2982C69.4857 26.9623 68.0736 26.343 66.461 26.1292C64.8603 25.917 63.0114 26.0964 61.1154 26.3979C60.1635 26.5493 59.1887 26.7335 58.218 26.9189C58.1411 26.9336 58.0642 26.9483 57.9874 26.963C57.0919 27.1342 56.2013 27.3045 55.3257 27.4517C53.6043 27.7412 51.9751 27.9351 50.5387 27.8739Z" fill="#EEF3F7" stroke="#ADB1B3"/>
<path d="M46.6762 27.9713C41.8694 27.5067 35.214 27.8445 32.6586 29.336C30.1037 30.8272 27.9009 43.1387 31.5316 48.6718C35.1619 54.205 36.1992 55.8581 35.4211 60.7447C34.6433 65.631 34.1269 84.028 35.3359 86.7229C34.5582 86.7229 33.9531 85.4293 33.7801 83.6327C33.6074 81.836 33.9531 58.3367 33.9531 56.8997C33.9531 55.4622 32.0513 52.8034 29.5447 48.9228C27.0378 45.0423 26.4333 33.7592 30.0636 28.5852C32.7621 24.7396 41.0746 27.0035 46.6768 27.9711L46.6762 27.9713Z" fill="white"/>
<path d="M64.7417 86.7227C61.7138 79.5859 56.7469 60.2171 50.1694 61.8302C54.4276 61.8302 62.7241 87.0744 64.7417 86.7227Z" fill="white"/>
<path d="M66.2514 67.8591C66.1912 62.4216 66.1242 57.5307 66.1242 56.8991C66.1242 55.4616 68.026 52.8028 70.5326 48.9221C71.9145 46.7823 72.718 42.3924 72.5527 38.0166C72.2699 45.1758 65.2293 53.9958 64.689 55.2124C64.148 56.429 66.2049 63.3948 66.251 67.855L66.2514 67.8589V67.8591Z" fill="#D9DADA"/>
<path d="M50.3588 29.8168C47.1816 29.9214 43.7679 28.1183 41.9423 29.1597C41.9423 29.1597 46.3703 30.1195 48.9392 30.9964C53.5238 32.5613 58.0609 28.1615 61.0396 28.7933C58.4916 27.4806 53.4295 29.7158 50.3586 29.8166V29.817H50.3588V29.8168Z" fill="#D9DADA"/>
<path d="M31.9799 28.3288C27.2666 24.0005 23.0497 24.0005 18.6257 28.3288C23.0497 24.0005 23.0497 19.7836 18.6257 14.9751C23.0497 19.7836 27.2666 19.7836 31.9799 14.9751C27.2666 19.7836 27.2666 24.0012 31.9799 28.3288Z" fill="#C3996B"/>
<path d="M63.2529 9.84052C65.964 12.3306 68.3897 12.3306 70.9349 9.84052C68.39 12.3306 68.39 14.7556 70.9349 17.5219C68.39 14.7554 65.964 14.7554 63.2529 17.5219C65.964 14.7554 65.964 12.3299 63.2529 9.84052Z" fill="#C3996B"/>
<path d="M81.078 39.1264C82.8334 40.7376 84.4033 40.7376 86.0504 39.1264C84.4026 40.7376 84.4026 42.3082 86.0504 44.0988C84.4026 42.3082 82.8327 42.3082 81.078 44.0988C82.8334 42.3079 82.8334 40.7381 81.078 39.1264Z" fill="#C3996B"/>
<path d="M8.33331 48.1225C11.0444 50.6126 13.4702 50.6126 16.0154 48.1225C13.4704 50.6126 13.4704 53.0381 16.0154 55.8046C13.4704 53.0381 11.0444 53.0381 8.33331 55.8046C11.0444 53.0381 11.0444 50.6121 8.33331 48.1225Z" fill="#C3996B"/>
</svg>
