<svg width="100" height="100" viewBox="0 0 100 100" fill="none" xmlns="http://www.w3.org/2000/svg">
<path d="M50 100C77.6142 100 100 77.6142 100 50C100 22.3858 77.6142 0 50 0C22.3858 0 0 22.3858 0 50C0 77.6142 22.3858 100 50 100Z" fill="#FFE356"/>
<path d="M34.6562 31.4613L50 47.826L65.3437 31.4613L67.5094 33.4986L52.0373 49.9998L67.5094 66.501L65.3437 68.5383L50 52.1737L34.6562 68.5383L32.4918 66.501L47.9627 49.9998L32.4918 33.4986L34.6562 31.4613Z" fill="white"/>
<path d="M50 38.2617C56.4827 38.2617 61.7408 43.5174 61.7408 50.0001C61.7408 56.4828 56.4827 61.7397 50 61.7397C43.5173 61.7397 38.2604 56.4828 38.2604 50.0001C38.2604 43.5174 43.5173 38.2617 50 38.2617Z" fill="#ECF0F1"/>
<path d="M50 39.2543C55.9345 39.2543 60.7457 44.0641 60.7457 49.9999C60.7457 55.9332 55.9359 60.7456 50 60.7456C44.0668 60.7456 39.2544 55.9334 39.2544 49.9999C39.2544 44.0643 44.0668 39.2543 50 39.2543Z" fill="#FAD24D"/>
<path d="M45.9958 54.0913H46.2757L47.9167 53.1962L48.1837 52.1516C47.7931 51.7575 47.3886 51.0895 47.0216 50.2672C46.9921 50.2719 46.9617 50.2743 46.9298 50.2743C46.4958 50.2743 46.0663 49.8026 45.97 49.2203C45.8948 48.7639 46.0452 48.3758 46.323 48.2287C45.956 46.3572 45.7124 43.4835 48.9355 42.773C50.8693 42.3472 51.5598 43.84 51.6445 44.0035C52.8148 43.347 53.5584 44.3316 53.7488 44.8527C54.0947 45.7949 53.9817 47.5477 53.8053 48.3217C54.0006 48.5076 54.0947 48.8405 54.0311 49.2203C53.9358 49.7932 53.5193 50.259 53.0924 50.2743C52.7477 51.0307 52.2867 51.6799 51.816 52.1516L52.083 53.1962H52.1053L53.7016 54.0913H54.0039C55.9731 54.0913 57.6069 55.5394 57.8128 57.3755C55.853 59.4506 53.077 60.7469 49.9986 60.7469C46.9202 60.7469 44.144 59.4506 42.1844 57.3755C42.3903 55.5359 44.0241 54.0913 45.9933 54.0913H45.9958Z" fill="white"/>
<path d="M29.0406 16.1896C35.3668 16.1896 40.4977 21.3172 40.4977 27.6432C40.4977 33.9683 35.3666 39.0992 29.0406 39.0992C22.7145 39.0992 17.5846 33.9681 17.5846 27.6432C17.5846 21.3172 22.7145 16.1896 29.0406 16.1896Z" fill="#ECF0F1"/>
<path d="M29.0406 60.9012C35.3668 60.9012 40.4977 66.0288 40.4977 72.3548C40.4977 78.6809 35.3666 83.812 29.0406 83.812C22.7145 83.812 17.5846 78.6809 17.5846 72.3548C17.5846 66.0288 22.7145 60.9012 29.0406 60.9012Z" fill="#ECF0F1"/>
<path d="M70.9606 60.9012C77.2868 60.9012 82.4166 66.0288 82.4166 72.3548C82.4166 78.6809 77.2866 83.812 70.9606 83.812C64.6345 83.812 59.5034 78.6809 59.5034 72.3548C59.5034 66.0288 64.6343 60.9012 70.9606 60.9012Z" fill="#ECF0F1"/>
<path d="M70.9606 16.1896C77.2868 16.1896 82.4166 21.3172 82.4166 27.6432C82.4166 33.9683 77.2866 39.0992 70.9606 39.0992C64.6345 39.0992 59.5034 33.9681 59.5034 27.6432C59.5034 21.3172 64.6343 16.1896 70.9606 16.1896Z" fill="#ECF0F1"/>
<path d="M29.0405 17.407C34.6939 17.407 39.2791 21.9898 39.2791 27.6432C39.2791 33.2966 34.6939 37.8818 29.0405 37.8818C23.3872 37.8818 18.8019 33.2966 18.8019 27.6432C18.8019 21.9898 23.3873 17.407 29.0405 17.407Z" fill="#FF7069"/>
<path d="M25.32 31.6989H25.58L27.1044 30.8673L27.3527 29.8967C26.9892 29.5297 26.614 28.9086 26.2728 28.1463C26.2445 28.151 26.2163 28.1522 26.1868 28.1522C25.7845 28.1522 25.3859 27.7135 25.2952 27.1723C25.2247 26.7488 25.3657 26.3877 25.6222 26.2512C25.281 24.5127 25.0552 21.8423 28.0501 21.1826C29.8464 20.7861 30.4886 22.1742 30.5662 22.3259C31.6543 21.7154 32.3447 22.6306 32.5225 23.1152C32.8435 23.9904 32.7389 25.6172 32.5754 26.3371C32.7564 26.51 32.8436 26.8194 32.7848 27.1723C32.6965 27.7039 32.3084 28.1369 31.9131 28.151C31.5931 28.8545 31.1638 29.4567 30.7273 29.8956L30.9756 30.8661H30.9967L32.4787 31.6977H32.7609C34.6266 31.6977 36.1674 33.0964 36.3098 34.8491C34.4547 36.7206 31.8822 37.8804 29.039 37.8804C26.197 37.8804 23.6245 36.7206 21.7694 34.8491C21.9106 33.0929 23.4526 31.6977 25.3183 31.6977L25.32 31.6989Z" fill="white"/>
<path d="M70.9594 17.407C76.6151 17.407 81.198 21.9898 81.198 27.6432C81.198 33.2966 76.6151 37.8818 70.9594 37.8818C65.306 37.8818 60.7231 33.2966 60.7231 27.6432C60.7231 21.9898 65.306 17.407 70.9594 17.407Z" fill="#83CF8F"/>
<path d="M67.2387 31.6989H67.4998L69.0242 30.8673L69.2725 29.8967C68.909 29.5297 68.5338 28.9086 68.1914 28.1463C68.1642 28.151 68.1361 28.1522 68.1066 28.1522C67.7043 28.1522 67.3045 27.7135 67.215 27.1723C67.1445 26.7488 67.2855 26.3877 67.542 26.2512C67.2008 24.5127 66.975 21.8423 69.9699 21.1826C71.7662 20.7861 72.4084 22.1742 72.486 22.3259C73.5741 21.7154 74.2645 22.6306 74.4423 23.1152C74.7634 23.9904 74.6587 25.6172 74.4952 26.3371C74.6751 26.51 74.7634 26.8194 74.7046 27.1723C74.6163 27.7039 74.2282 28.1369 73.8329 28.151C73.5129 28.8545 73.0836 29.4567 72.6471 29.8956L72.8954 30.8661H72.9165L74.3987 31.6977H74.6809C76.5466 31.6977 78.0874 33.0964 78.2298 34.8491C76.3747 36.7206 73.8022 37.8804 70.959 37.8804C68.1158 37.8804 65.5445 36.7206 63.6894 34.8491C63.8318 33.0929 65.3726 31.6977 67.2383 31.6977V31.6989H67.2387Z" fill="white"/>
<path d="M29.0405 62.1183C34.6939 62.1183 39.2791 66.7012 39.2791 72.3545C39.2791 78.0103 34.6939 82.5931 29.0405 82.5931C23.3872 82.5931 18.8019 78.0103 18.8019 72.3545C18.8019 66.7012 23.3873 62.1183 29.0405 62.1183Z" fill="#83CF8F"/>
<path d="M36.6489 79.2052C34.775 81.2849 32.0602 82.5929 29.0406 82.5929C26.021 82.5929 23.3062 81.2849 21.4323 79.2052C21.7698 77.5512 23.2968 76.2938 25.1165 76.2938H25.3917L26.9998 75.4162L27.2609 74.3928C26.8775 74.0059 26.4822 73.3518 26.1222 72.5459C26.0927 72.5506 26.0634 72.5529 26.0328 72.5529C25.6081 72.5529 25.187 72.0906 25.0917 71.5201C25.0177 71.0742 25.1658 70.6931 25.4376 70.5496C25.0777 68.7158 24.8388 65.8997 27.9972 65.2032C29.8922 64.7868 30.5685 66.2489 30.651 66.4089C31.7979 65.7655 32.5272 66.73 32.7131 67.2406C33.052 68.164 32.9412 69.8802 32.7695 70.6388C32.9602 70.8199 33.0529 71.147 32.9906 71.5199C32.8977 72.081 32.4883 72.5375 32.0707 72.5527C31.7332 73.2949 31.2803 73.9301 30.8203 74.3924L31.0826 75.4159H31.1049L32.6682 76.2934H32.9658C34.7832 76.2934 36.3112 77.5544 36.6501 79.2048H36.6489V79.2052Z" fill="white"/>
<path d="M70.9594 62.1183C76.6151 62.1183 81.198 66.7012 81.198 72.3545C81.198 78.0103 76.6151 82.5931 70.9594 82.5931C65.306 82.5931 60.7231 78.0103 60.7231 72.3545C60.7231 66.7012 65.306 62.1183 70.9594 62.1183Z" fill="#FF7069"/>
<path d="M78.5973 79.1737C76.7222 81.2722 73.9968 82.5933 70.9595 82.5933C67.9247 82.5933 65.1979 81.2724 63.324 79.1737C63.7217 77.5774 65.2239 76.3835 67.0047 76.3835H67.2823L68.9032 75.4989L69.1667 74.4684C68.7809 74.078 68.3821 73.4192 68.0186 72.6074C67.9891 72.6121 67.9598 72.6145 67.928 72.6145C67.501 72.6145 67.0753 72.1486 66.9799 71.5734C66.9059 71.1228 67.0551 70.7394 67.3282 70.5947C66.9659 68.7455 66.7258 65.9071 69.9091 65.206C71.8183 64.786 72.5017 66.2599 72.5839 66.421C73.7402 65.773 74.4742 66.7456 74.6624 67.2597C75.0037 68.1902 74.8929 69.9205 74.7189 70.6851C74.9119 70.8687 75.0048 71.1969 74.9423 71.5732C74.8482 72.1391 74.4365 72.599 74.0154 72.6143C73.6753 73.3623 73.2179 74.0035 72.7544 74.4682L73.0179 75.4998H73.0402L74.6164 76.3844H74.9164C76.6961 76.3844 78.1994 77.5819 78.5971 79.1759V79.1737H78.5973Z" fill="white"/>
</svg>
