<svg width="100" height="100" viewBox="0 0 100 100" fill="none" xmlns="http://www.w3.org/2000/svg">
<path d="M50 100C77.6142 100 100 77.6142 100 50C100 22.3858 77.6142 0 50 0C22.3858 0 0 22.3858 0 50C0 77.6142 22.3858 100 50 100Z" fill="#FAD24D"/>
<path d="M31.6731 14.6287H67.2437C67.805 14.6287 68.2601 15.0837 68.2601 15.6451V83.9681C68.2601 84.5294 67.805 84.9845 67.2437 84.9845H31.6731C31.1118 84.9845 30.6567 84.5294 30.6567 83.9681V15.6451C30.6567 15.0835 31.1118 14.6287 31.6731 14.6287Z" fill="#666666"/>
<path d="M33.2323 24.123H65.6847C66.1208 24.123 66.4741 24.4764 66.4741 24.9125V74.7C66.4741 75.1361 66.1208 75.4895 65.6847 75.4895H33.2323C32.7962 75.4895 32.4429 75.1361 32.4429 74.7V24.9125C32.4429 24.4764 32.7964 24.123 33.2323 24.123Z" fill="#21D0C3"/>
<path d="M40.9181 18.9719H57.9976C58.3899 18.9719 58.7081 19.29 58.7081 19.6822C58.7081 20.0746 58.3899 20.3926 57.9976 20.3926H40.9181C40.5257 20.3926 40.2075 20.0744 40.2075 19.6822C40.2075 19.29 40.5257 18.9719 40.9181 18.9719Z" fill="#C0C1C4"/>
<path d="M49.3177 82.8069C50.6203 82.8069 51.6763 81.7509 51.6763 80.4483C51.6763 79.1457 50.6203 78.0897 49.3177 78.0897C48.0151 78.0897 46.9591 79.1457 46.9591 80.4483C46.9591 81.7509 48.0151 82.8069 49.3177 82.8069Z" fill="#C0C1C4"/>
<path d="M35.3412 20.5487C35.7864 20.5487 36.1473 20.1878 36.1473 19.7426C36.1473 19.2975 35.7864 18.9366 35.3412 18.9366C34.896 18.9366 34.5352 19.2975 34.5352 19.7426C34.5352 20.1878 34.896 20.5487 35.3412 20.5487Z" fill="#C0C1C4"/>
<path d="M54.7891 51.6998C54.8377 51.833 54.882 51.969 54.9219 52.1071L58.2922 63.8051C59.7629 63.8869 59.7236 66.4373 58.2297 66.4373H50.0139C48.5194 66.4373 48.4805 63.8871 49.9514 63.8051L46.5815 52.1071C46.5395 51.9612 46.5233 51.8174 46.5286 51.6774C46.6409 51.6922 46.7553 51.6998 46.8717 51.6998H54.7891Z" fill="#ECF0F1"/>
<path d="M54.7891 51.6998C54.8377 51.833 54.882 51.969 54.9219 52.1071L55.127 52.8194H46.7859L46.5809 52.1071C46.5389 51.9612 46.5227 51.8174 46.5279 51.6774C46.6402 51.6922 46.7547 51.6998 46.8711 51.6998H54.7891Z" fill="#DCE3DB"/>
<path d="M78.7116 44.5862V62.2171L78.7105 62.2667L78.7071 62.3155L78.7017 62.3634L78.6944 62.4101L78.6847 62.4558L78.6733 62.4999L78.6597 62.5435L78.6446 62.5858L78.6276 62.6271L78.6089 62.6673L78.5884 62.7064L78.5659 62.7442L78.5421 62.7808L78.5167 62.8163L78.4899 62.8509L78.4616 62.8839L78.4317 62.9159L78.4009 62.9466H78.4007L78.3685 62.9763L78.3345 63.0044L78.2997 63.0313L78.2638 63.0571L78.2265 63.0815H78.2263L78.1882 63.1048H78.188L78.1487 63.1267L78.1085 63.1472H78.1083L78.0673 63.1665L78.0251 63.1845L77.9821 63.2013L77.9386 63.2165H77.9384L77.8942 63.2304L77.8493 63.2433H77.8491L77.8034 63.2544L77.7573 63.2644H77.7571L77.7105 63.2724L77.6632 63.2796L77.6153 63.2851L77.5675 63.2892H77.5673L77.519 63.2917H77.5189L77.4702 63.2931L77.4216 63.2927L77.3724 63.2911L77.3232 63.2878H77.323L77.2741 63.2831L77.2247 63.2767L77.1755 63.2689L77.1263 63.2597H77.1261L77.0773 63.2489L77.0286 63.2364H77.0284L76.9802 63.2226H76.98L76.9319 63.2067H76.9317L76.8837 63.1898L76.8362 63.171H76.836L76.7892 63.1505H76.789L76.7423 63.1284H76.7421L76.696 63.105L76.6503 63.0798L76.6054 63.0526L76.5612 63.0237H76.561L76.5175 62.9935L76.4747 62.9614L76.4327 62.9276H76.4325L76.3915 62.8921L76.3513 62.855C76.1978 62.7075 76.0448 62.5622 75.8923 62.4183C75.7401 62.2743 75.5882 62.1321 75.437 61.9917H75.4368C75.2853 61.8513 75.1345 61.7122 74.9845 61.5749C74.8341 61.4376 74.6843 61.3019 74.5355 61.1681C74.3862 61.0337 74.2376 60.9019 74.0892 60.771C73.9411 60.6403 73.7937 60.5112 73.6464 60.3835C73.4991 60.256 73.3526 60.1302 73.2067 60.0058C73.0606 59.8814 72.9153 59.7585 72.7702 59.6372C72.6251 59.5159 72.4812 59.3964 72.337 59.2782C72.1931 59.1601 72.0497 59.0435 71.9069 58.9282C71.7642 58.813 71.622 58.7001 71.4804 58.5876C71.3388 58.4755 71.1978 58.3649 71.0569 58.2558C70.9159 58.1468 70.7761 58.0394 70.6364 57.9331C70.4968 57.8269 70.3579 57.7224 70.2192 57.6192C70.0808 57.5161 69.9431 57.4144 69.8056 57.3142C69.6679 57.214 69.5312 57.1153 69.3948 57.0179C69.2583 56.9202 69.123 56.8245 68.9876 56.7302C68.8522 56.6356 68.7177 56.5425 68.5831 56.4507C68.4491 56.3591 68.3157 56.2689 68.1823 56.1802H68.1821C68.0489 56.0911 67.9165 56.0036 67.7843 55.9173C67.6522 55.8315 67.5208 55.7468 67.3899 55.6632C67.2589 55.58 67.1288 55.4976 66.9985 55.4167H66.9983C66.8683 55.336 66.7392 55.2565 66.6103 55.1784C66.4814 55.1001 66.353 55.0235 66.2253 54.948C66.0976 54.8724 65.9702 54.798 65.8435 54.7253C65.7167 54.6524 65.5907 54.5806 65.4649 54.5103C65.3392 54.4401 65.2142 54.3706 65.0896 54.3028C64.9649 54.2353 64.8409 54.1685 64.7173 54.1032C64.5937 54.038 64.4706 53.9735 64.3483 53.911C64.2259 53.8483 64.1038 53.7862 63.9825 53.7259H63.9823C63.861 53.6657 63.7401 53.606 63.62 53.5479H63.6198C63.4995 53.4899 63.3796 53.4327 63.2608 53.3774H63.2606C63.1411 53.3216 63.0226 53.2671 62.9046 53.2138H62.9044C62.7862 53.1604 62.6683 53.1081 62.5515 53.0571H62.5513C62.4343 53.0064 62.3175 52.9558 62.2017 52.9073H62.2015C62.0855 52.8581 61.9698 52.8108 61.8546 52.7644C61.7397 52.7175 61.6249 52.672 61.511 52.6274C61.397 52.5829 61.2835 52.5399 61.1706 52.4976C61.0575 52.4554 60.9454 52.414 60.8333 52.3739H60.8331C60.7214 52.3337 60.6097 52.2948 60.4989 52.2567C60.3882 52.2187 60.278 52.1817 60.1683 52.1458C60.0585 52.1099 59.9491 52.0749 59.8405 52.0411H59.8397C59.7308 52.0071 59.6229 51.9745 59.5153 51.9425C59.4075 51.9105 59.3003 51.8794 59.1937 51.8495C59.087 51.8198 58.9812 51.7907 58.8757 51.7628H58.8755C58.7698 51.7349 58.6649 51.7077 58.5605 51.6815C58.456 51.6554 58.3519 51.6306 58.2485 51.6063C58.1452 51.5821 58.0421 51.5585 57.9397 51.5366C57.8372 51.5142 57.7354 51.4929 57.6343 51.4722C57.5329 51.4517 57.4323 51.4319 57.3319 51.4134H57.3317C57.2313 51.3946 57.1319 51.3765 57.0327 51.3597C56.9335 51.3427 56.8347 51.3267 56.7366 51.3114H56.7364C56.6384 51.296 56.5409 51.2812 56.4438 51.2679C56.3466 51.254 56.2501 51.2415 56.154 51.2296C56.0577 51.2177 55.9622 51.2064 55.8675 51.1956L55.5841 51.1669C55.4899 51.1581 55.397 51.1495 55.3036 51.1427C55.2108 51.1353 55.1185 51.1288 55.0267 51.1233H55.0265C54.9345 51.1175 54.8435 51.1126 54.7524 51.1083C54.6618 51.1044 54.5712 51.1005 54.4815 51.0978L54.2142 51.0915L53.9495 51.0894L53.6884 51.0917L53.4302 51.098V44.5872V38.0755C58.9071 38.2505 66.5257 35.7427 76.3519 26.3187C77.1987 25.5069 78.7075 25.8847 78.7075 26.9562V44.5874L78.7116 44.5862Z" fill="#FF5B62"/>
<path d="M38.3446 41.4227H40.35V47.7495H38.3446C38.0865 47.7495 37.8756 47.5387 37.8756 47.2805V41.8919C37.8754 41.6337 38.0864 41.4227 38.3446 41.4227Z" fill="#ECF0F1"/>
<path d="M40.3862 39.7621H45.3483V49.4098H40.3862C39.7475 49.4098 39.2252 48.8873 39.2252 48.2487V40.9233C39.2252 40.2846 39.7477 39.7621 40.3862 39.7621Z" fill="white"/>
<path d="M58.1228 44.5861V51.6994H46.8711C45.4227 51.6994 44.2379 50.5147 44.2379 49.0668V44.5861V40.1051C44.2379 38.657 45.4227 37.4727 46.8711 37.4727H58.1227V44.5861H58.1228Z" fill="white"/>
<path d="M79.9059 26.3056V62.8634C79.9059 66.0239 76.4498 66.0239 76.4498 62.8634V26.3056C76.4498 23.147 79.9059 23.147 79.9059 26.3056Z" fill="white"/>
<path d="M40.6271 40.3254H43.6854V41.4217H40.6271C40.3256 41.4217 40.0791 41.1754 40.0791 40.8739V40.8731C40.0791 40.5715 40.3256 40.3254 40.6271 40.3254ZM40.6271 44.0377H43.6854V45.134H40.6271C40.3256 45.134 40.0791 44.8877 40.0791 44.5862V44.5854C40.0791 44.2838 40.3256 44.0377 40.6271 44.0377ZM40.6271 45.8938H43.6854V46.9903H40.6271C40.3256 46.9903 40.0791 46.7438 40.0791 46.4422V46.4415C40.0791 46.1403 40.3256 45.8938 40.6271 45.8938ZM40.6271 47.7501H43.6854V48.8463H40.6271C40.3256 48.8463 40.0791 48.6001 40.0791 48.2985V48.2977C40.0791 47.9962 40.3256 47.7501 40.6271 47.7501ZM40.6271 42.1815H43.6854V43.278H40.6271C40.3256 43.278 40.0791 43.0315 40.0791 42.7299V42.7292C40.0791 42.4278 40.3256 42.1815 40.6271 42.1815Z" fill="#ECF0F1"/>
<path d="M90.3811 49.2211L85.2461 47.4934L85.4637 46.8487L90.5983 48.5772L90.3811 49.2211ZM84.7559 57.0145L81.8717 52.4289L81.2961 52.7908L84.1803 57.3764L84.7559 57.0145ZM84.7619 54.3211L83.0899 51.6627L82.5143 52.0246L84.1861 54.683L84.7619 54.3211ZM84.7555 32.9281L81.8713 37.5143L81.2959 37.1522L84.1801 32.566L84.7555 32.9281ZM84.7619 35.6213L83.0899 38.2801L82.5145 37.918L84.1865 35.26L84.7619 35.6213ZM90.2277 40.0494L85.0703 41.7086L84.8621 41.0613L90.0195 39.4024L90.2277 40.0494ZM88.5012 42.117L85.5113 43.0787L85.3029 42.4313L88.2926 41.4699L88.5012 42.117ZM87.7641 49.8592L84.7875 48.8574L85.0043 48.2127L87.9809 49.2151L87.7641 49.8592Z" fill="white"/>
</svg>
